<svg width="65" height="61" viewBox="0 0 65 61" fill="none" xmlns="http://www.w3.org/2000/svg">
<g clip-path="url(#clip0_6_109)">
<path d="M57.0829 37.7206C51.6399 45.5287 34.1271 60.9685 32.9937 60.9182C32.2192 60.8829 15.8424 47.5084 10.0934 40.1386C4.59752 33.0836 -0.564621 23.8197 0.688448 14.7939C1.73246 7.2578 7.62 0.609605 17.0967 0.929484C25.9765 1.22795 29.9939 9.25264 32.3703 14.8493C32.4409 14.6721 32.5126 14.4945 32.5857 14.3166C34.379 9.98937 37.3864 5.9002 41.4944 3.32102C48.358 -0.988532 57.909 1.27833 62.0788 7.96808C62.5683 8.7534 62.9896 9.5792 63.3382 10.4364C67.0268 19.5782 62.405 30.0901 57.0829 37.7206Z" fill="black"/>
<path d="M46.9437 37.2861C43.7865 41.8122 33.631 50.7689 32.9736 50.7386C32.524 50.7185 23.0246 42.9633 19.6923 38.6865C16.5049 34.5948 13.5126 29.2249 14.2393 23.9909C14.8463 19.6197 18.2579 15.7648 23.7538 15.9499C28.9046 16.1237 31.2344 20.777 32.6122 24.0237C32.6525 23.9204 32.694 23.8172 32.7381 23.7139C33.7783 21.204 35.5226 18.8326 37.9015 17.3377C41.8824 14.8379 47.421 16.1526 49.839 20.0328C50.1225 20.4875 50.3656 20.9662 50.5657 21.4634C52.7066 26.7653 50.0267 32.8619 46.9437 37.2861Z" fill="#1F62C0"/>
</g>
<defs>
<clipPath id="clip0_6_109">
<rect width="64.166" height="60" fill="white" transform="translate(0.498047 0.918213)"/>
</clipPath>
</defs>
</svg>
