<svg width="54" height="74" viewBox="0 0 54 74" fill="none" xmlns="http://www.w3.org/2000/svg">
<g clip-path="url(#clip0_6_134)">
<path d="M4.1172 72.6112L8.15978 39.3857L9.5172 26.617H45.2477L46.61 39.4239L50.6501 72.6112" stroke="black" stroke-width="2.05931" stroke-miterlimit="10" stroke-linecap="round"/>
<path d="M8.42701 37.3086H46.588" stroke="black" stroke-width="2.05931" stroke-miterlimit="10"/>
<path d="M7.31185 47.8497H47.4978" stroke="black" stroke-width="2.05931" stroke-miterlimit="10"/>
<path d="M6.20666 58.0208H48.4572" stroke="black" stroke-width="2.05931" stroke-miterlimit="10"/>
<path d="M5.16081 68.008H49.6959" stroke="black" stroke-width="2.05931" stroke-miterlimit="10"/>
<path d="M45.4284 0.566223H8.85724C4.49844 0.566223 0.964933 3.97832 0.964933 8.18735V48.5612C0.964933 52.7702 4.49844 56.1823 8.85724 56.1823H45.4284C49.7872 56.1823 53.3207 52.7702 53.3207 48.5612V8.18735C53.3207 3.97832 49.7872 0.566223 45.4284 0.566223Z" fill="#1F62C0"/>
<path d="M41.9716 11.0573H13.1246C10.2379 11.0573 7.89773 13.317 7.89773 16.1046V22.8781C7.89773 25.6657 10.2379 27.9254 13.1246 27.9254H41.9716C44.8584 27.9254 47.1985 25.6657 47.1985 22.8781V16.1046C47.1985 13.317 44.8584 11.0573 41.9716 11.0573Z" fill="white"/>
<path d="M44.1326 7.79103H10.7213C9.77187 7.79103 9.00291 7.17981 9.00291 6.42295C9.00291 5.66848 9.77187 5.05487 10.9686 5.05487H44.3798C45.082 5.05487 45.8633 5.66848 45.8633 6.42295C45.851 7.17981 45.082 7.79103 44.1326 7.79103Z" fill="white"/>
<path d="M42.6541 49.1151C44.8936 49.1151 46.7091 47.362 46.7091 45.1995C46.7091 43.037 44.8936 41.2839 42.6541 41.2839C40.4146 41.2839 38.5992 43.037 38.5992 45.1995C38.5992 47.362 40.4146 49.1151 42.6541 49.1151Z" fill="black"/>
<path d="M11.9133 49.1151C14.1528 49.1151 15.9682 47.362 15.9682 45.1995C15.9682 43.037 14.1528 41.2839 11.9133 41.2839C9.67379 41.2839 7.85834 43.037 7.85834 45.1995C7.85834 47.362 9.67379 49.1151 11.9133 49.1151Z" fill="black"/>
<path d="M27.0549 28.1689C27.0549 28.1689 15.8865 38.1275 0.944988 38.8605" stroke="white" stroke-width="0.792834" stroke-miterlimit="10"/>
<path d="M26.7186 28.1689C26.7186 28.1689 38.4013 38.0368 53.3427 38.7698" stroke="white" stroke-width="0.792834" stroke-miterlimit="10"/>
</g>
<defs>
<clipPath id="clip0_6_134">
<rect width="52.4373" height="73" fill="white" transform="translate(0.925293 0.566162)"/>
</clipPath>
</defs>
</svg>
