<svg width="70" height="71" viewBox="0 0 70 71" fill="none" xmlns="http://www.w3.org/2000/svg">
<g clip-path="url(#clip0_6_128)">
<path d="M59.5615 21.2662L50.5121 16.0597C49.649 16.0597 48.9499 15.5462 48.9499 14.9118V2.20083C48.9499 1.56647 49.649 1.05078 50.5121 1.05078H59.5615C60.4245 1.05078 61.1236 1.56647 61.1236 2.20083V20.1097C61.1236 20.757 60.4245 21.2662 59.5615 21.2662Z" fill="black"/>
<path d="M69.1633 27.6617C69.4009 28.0214 69.5167 28.4481 69.4934 28.8786C69.4869 29.1971 69.4001 29.5087 69.2412 29.7848C69.0824 30.0608 68.8564 30.2924 68.5844 30.458C68.3123 30.6236 68.0028 30.7179 67.6846 30.7323C67.3665 30.7466 67.0498 30.6805 66.7639 30.54C65.7606 30.0805 48.3566 17.089 45.7976 15.1643C43.7176 13.6021 41.6404 12.0371 39.5661 10.4691L36.6144 8.23593L36.567 8.20141C36.2979 8.02107 35.9814 7.92479 35.6575 7.92479C35.3336 7.92479 35.017 8.02107 34.748 8.20141L4.2166 30.3933C2.95651 31.3751 1.04695 30.7342 0.548521 29.3145C0.412019 28.8908 0.409869 28.4353 0.542364 28.0104C0.674859 27.5855 0.935513 27.212 1.28861 26.941L33.3714 1.26441C34.666 0.297767 36.8043 0.297767 38.1054 1.26441L39.851 2.73812L44.3433 6.53351L50.4733 11.712L57.1384 17.3436L63.221 22.4832C64.9795 23.9699 66.7574 25.4392 68.516 26.9281C68.7675 27.1386 68.9857 27.3859 69.1633 27.6617Z" fill="#1F62C0"/>
<path d="M66.3432 30.9478L36.2865 8.68904C36.1165 8.56554 35.9118 8.49902 35.7017 8.49902C35.4916 8.49902 35.2869 8.56554 35.117 8.68904C30.78 11.7745 3.92532 30.9133 3.92532 31.3449V66.634C3.92504 67.1462 4.02568 67.6534 4.2215 68.1267C4.41731 68.6 4.70446 69.0301 5.06654 69.3924C5.42862 69.7546 5.85853 70.042 6.33172 70.2381C6.8049 70.4342 7.31208 70.5351 7.82428 70.5351H28.3828V46.7745C28.3828 46.4775 28.5008 46.1927 28.7108 45.9827C28.9208 45.7727 29.2057 45.6547 29.5027 45.6547H41.4844C41.7814 45.6547 42.0662 45.7727 42.2762 45.9827C42.4862 46.1927 42.6042 46.4775 42.6042 46.7745V70.5351H62.8434C63.878 70.5351 64.8703 70.1241 65.6019 69.3925C66.3335 68.6609 66.7445 67.6686 66.7445 66.634V31.7613C66.6064 31.4722 66.4856 31.2327 66.3432 30.9478Z" fill="black"/>
<path d="M41.329 31.5887C40.0344 33.4443 35.87 37.1167 35.6025 37.1038C35.4169 37.1038 31.5244 33.9147 30.1564 32.1627C28.8618 30.4861 27.6233 28.2788 27.9211 26.1384C28.1692 24.3453 29.5695 22.7659 31.8222 22.8414C33.9324 22.9126 34.8883 24.82 35.4536 26.1513L35.5054 26.024C35.9263 24.9566 36.6652 24.0444 37.6221 23.411C38.4224 22.927 39.3791 22.7717 40.2914 22.9777C41.2038 23.1836 42.0009 23.7349 42.5157 24.5158C42.6331 24.702 42.7335 24.8984 42.8156 25.1027C43.7025 27.2755 42.5912 29.7741 41.329 31.5887Z" fill="white"/>
<path d="M39.6374 56.7261C40.3203 56.7261 40.8739 56.1725 40.8739 55.4896C40.8739 54.8067 40.3203 54.2531 39.6374 54.2531C38.9545 54.2531 38.4009 54.8067 38.4009 55.4896C38.4009 56.1725 38.9545 56.7261 39.6374 56.7261Z" fill="#1F62C0"/>
</g>
<defs>
<clipPath id="clip0_6_128">
<rect width="69.0765" height="70" fill="white" transform="translate(0.42334 0.534912)"/>
</clipPath>
</defs>
</svg>
