<svg width="66" height="65" viewBox="0 0 66 65" fill="none" xmlns="http://www.w3.org/2000/svg">
<g clip-path="url(#clip0_6_147)">
<path d="M60.6164 10.1208H4.57859C2.12083 10.1208 0.128418 12.1132 0.128418 14.571V59.7679C0.128418 62.2257 2.12083 64.2181 4.57859 64.2181H60.6164C63.0741 64.2181 65.0665 62.2257 65.0665 59.7679V14.571C65.0665 12.1132 63.0741 10.1208 60.6164 10.1208Z" fill="black"/>
<path d="M52.5793 4.20758C52.5793 2.18862 50.9434 0.551941 48.9255 0.551941C46.9076 0.551941 45.2718 2.18862 45.2718 4.20758V12.4547C45.2718 14.4737 46.9076 16.1104 48.9255 16.1104C50.9434 16.1104 52.5793 14.4737 52.5793 12.4547V4.20758Z" fill="#3361BB" stroke="white" stroke-width="0.424008" stroke-miterlimit="10"/>
<path d="M19.5143 4.20758C19.5143 2.18862 17.8785 0.551941 15.8606 0.551941C13.8427 0.551941 12.2068 2.18862 12.2068 4.20758V12.4547C12.2068 14.4737 13.8427 16.1104 15.8606 16.1104C17.8785 16.1104 19.5143 14.4737 19.5143 12.4547V4.20758Z" fill="#3361BB" stroke="white" stroke-width="0.424008" stroke-miterlimit="10"/>
<path d="M42.2426 55.7455C44.7991 55.7478 47.2989 54.9917 49.4256 53.573C51.5523 52.1542 53.2104 50.1365 54.1901 47.7752C55.1699 45.4139 55.4272 42.815 54.9295 40.3074C54.4319 37.7998 53.2017 35.4961 51.3945 33.6878C49.5873 31.8796 47.2843 30.648 44.777 30.1488C42.2697 29.6497 39.6707 29.9055 37.3088 30.8838C34.9468 31.8622 32.9282 33.5191 31.5082 35.645C30.0882 37.7708 29.3306 40.2701 29.3314 42.8267C29.3309 44.5227 29.6644 46.2022 30.313 47.7693C30.9616 49.3364 31.9125 50.7605 33.1114 51.9601C34.3103 53.1597 35.7338 54.1115 37.3005 54.761C38.8672 55.4105 40.5466 55.745 42.2426 55.7455Z" fill="white"/>
<path d="M42.3152 32.0469V35.8974" stroke="#231F20" stroke-width="0.229193" stroke-miterlimit="10"/>
<path d="M42.3152 49.8247V54.0686" stroke="#231F20" stroke-width="0.229193" stroke-miterlimit="10"/>
<path d="M42.216 31.2218V35.4619" stroke="#231F20" stroke-width="0.229193" stroke-miterlimit="10"/>
<path d="M50.3409 35.206L47.667 37.7462" stroke="#231F20" stroke-width="0.229193" stroke-miterlimit="10"/>
<path d="M37.5902 47.4487L35.1264 50.4664" stroke="#231F20" stroke-width="0.229193" stroke-miterlimit="10"/>
<path d="M34.385 35.1105L36.8603 37.6545" stroke="#231F20" stroke-width="0.229193" stroke-miterlimit="10"/>
<path d="M49.9131 49.9546L47.2812 47.2806" stroke="#231F20" stroke-width="0.229193" stroke-miterlimit="10"/>
<path d="M49.153 42.9069H53.3167" stroke="#231F20" stroke-width="0.229193" stroke-miterlimit="10"/>
<path d="M31.5356 42.9603H35.3555" stroke="#231F20" stroke-width="0.229193" stroke-miterlimit="10"/>
<path d="M42.2694 43.8657C42.5778 43.8664 42.8795 43.7757 43.1363 43.6049C43.3931 43.4341 43.5935 43.1909 43.712 42.9062C43.8306 42.6215 43.862 42.308 43.8023 42.0055C43.7426 41.7029 43.5944 41.4248 43.3766 41.2065C43.1588 40.9881 42.8811 40.8393 42.5787 40.7789C42.2763 40.7184 41.9627 40.7491 41.6777 40.8669C41.3927 40.9848 41.1491 41.1845 40.9776 41.4409C40.8062 41.6973 40.7147 41.9988 40.7147 42.3072C40.7147 42.7199 40.8784 43.1157 41.1698 43.4079C41.4613 43.7 41.8567 43.8647 42.2694 43.8657Z" fill="#3361BB"/>
<path d="M42.216 32.2876L42.3153 42.7808L51.5862 42.884" stroke="#3361BB" stroke-width="0.805997" stroke-miterlimit="10" stroke-linecap="round"/>
<path d="M15.0718 36.6422C15.0566 37.2038 15.1689 37.7614 15.4003 38.2733C15.6075 38.7128 15.9181 39.0956 16.3056 39.3887C16.7089 39.6741 17.1587 39.8874 17.6349 40.019C18.1758 40.1459 18.7296 40.2087 19.2851 40.2062C19.8362 40.2165 20.3858 40.1457 20.9162 39.9961C21.3134 39.8678 21.6846 39.6699 22.0125 39.4116C22.2745 39.2021 22.4816 38.9321 22.6161 38.6248C22.7389 38.3293 22.8024 38.0126 22.8032 37.6927C22.8246 37.4426 22.7965 37.1907 22.7205 36.9515C22.6444 36.7122 22.522 36.4903 22.3601 36.2984C22.1102 36.0048 21.7894 35.7799 21.4281 35.6452C20.7508 35.4014 20.0594 35.1986 19.3577 35.0379C18.5937 34.8392 17.6311 34.5846 16.4699 34.2739C15.8398 34.1247 15.2358 33.8813 14.6783 33.5519C14.2478 33.2731 13.8691 32.9215 13.5591 32.5129C13.2873 32.157 13.0828 31.7544 12.9556 31.3249C12.8454 30.9073 12.7902 30.4772 12.7913 30.0453C12.772 29.2912 12.9483 28.545 13.3032 27.8794C13.6506 27.273 14.1281 26.7512 14.7013 26.3515C15.2934 25.9387 15.9563 25.6383 16.657 25.4652C18.1834 25.0465 19.7964 25.0637 21.3135 25.5149C22.0485 25.7097 22.7369 26.05 23.338 26.5157C23.9477 26.9764 24.4389 27.5756 24.771 28.2637C25.1031 28.9519 25.2666 29.7092 25.248 30.4731H22.3372C22.2608 29.3984 21.8954 28.6459 21.2409 28.2156C20.4992 27.7419 19.6295 27.5084 18.7503 27.5471C18.3984 27.5482 18.0476 27.5867 17.7037 27.6617C17.3597 27.7208 17.0287 27.8397 16.7258 28.0131C16.423 28.1655 16.161 28.3881 15.9618 28.6625C15.7418 29.0451 15.6481 29.4873 15.6941 29.9263C15.74 30.3652 15.9233 30.7785 16.2178 31.1072C16.6354 31.4673 17.129 31.7285 17.6617 31.8712L18.3836 32.0813C18.8191 32.1921 19.3004 32.3143 19.8276 32.4633C20.3547 32.6122 20.8666 32.7421 21.3555 32.8835C21.8445 33.0248 22.2341 33.0974 22.448 33.1623C22.9581 33.3125 23.4387 33.5489 23.869 33.8614C24.26 34.1413 24.5988 34.4878 24.8698 34.8851C25.1461 35.2473 25.3521 35.658 25.4772 36.096C25.6223 36.5039 25.7047 36.9315 25.7216 37.3642C25.7465 38.153 25.5689 38.9351 25.2058 39.6359C24.8427 40.3366 24.3062 40.9328 23.6474 41.3674C23.0002 41.7988 22.2789 42.107 21.5198 42.2766C20.7283 42.4781 19.9147 42.5795 19.098 42.5783C18.195 42.5846 17.2954 42.4676 16.424 42.2307C15.6317 42.0201 14.8882 41.6568 14.2352 41.1612C13.6045 40.6693 13.0948 40.0395 12.7455 39.32C12.3544 38.4832 12.1547 37.5697 12.161 36.6461L15.0718 36.6422Z" fill="white"/>
<path d="M19.2279 44.5724V24.0481" stroke="white" stroke-width="1.26056" stroke-miterlimit="10" stroke-linecap="round"/>
</g>
<defs>
<clipPath id="clip0_6_147">
<rect width="64.9381" height="63.8762" fill="white" transform="translate(0.128418 0.342041)"/>
</clipPath>
</defs>
</svg>
