<svg width="55" height="72" viewBox="0 0 55 72" fill="none" xmlns="http://www.w3.org/2000/svg">
<g clip-path="url(#clip0_6_122)">
<path d="M29.1597 30.6797C37.6219 30.6797 44.4819 23.8197 44.4819 15.3574C44.4819 6.89517 37.6219 0.0351562 29.1597 0.0351562C20.6974 0.0351562 13.8374 6.89517 13.8374 15.3574C13.8374 23.8197 20.6974 30.6797 29.1597 30.6797Z" fill="black"/>
<path d="M29.0566 32.0402C15.4295 32.0402 3.23535 40.5781 3.23535 52.2764C3.23535 59.8266 10.3865 66.1494 17.2092 68.5439C29.8568 72.9781 54.3297 66.9718 54.9565 51.6515C55.4342 39.9613 42.6798 32.0402 29.0566 32.0402Z" fill="black"/>
<path d="M26.634 31.7479C35.0962 31.7479 41.9563 24.8879 41.9563 16.4257C41.9563 7.9634 35.0962 1.10339 26.634 1.10339C18.1717 1.10339 11.3117 7.9634 11.3117 16.4257C11.3117 24.8879 18.1717 31.7479 26.634 31.7479Z" fill="#1F62C0"/>
<path d="M26.5292 33.1084C12.9061 33.1084 0.709961 41.6483 0.709961 53.3466C0.709961 60.8949 7.86116 67.2197 14.6838 69.6121C27.3334 74.0464 51.8063 68.042 52.4312 52.7198C52.9088 41.0316 40.1544 33.1084 26.5292 33.1084Z" fill="#1F62C0"/>
<path d="M31.6829 47.052C30.6752 48.4992 27.4281 51.3633 27.2165 51.3532C27.0734 51.3532 24.0359 48.868 22.9697 47.4975C21.9518 46.1894 20.9944 44.4741 21.2262 42.7992C21.4278 41.4004 22.5122 40.1689 24.2697 40.2273C25.9164 40.2838 26.6602 41.7713 27.1016 42.8093C27.1157 42.777 27.1278 42.7407 27.1419 42.7105C27.4701 41.8769 28.0472 41.1647 28.7947 40.6708C29.419 40.293 30.1654 40.1719 30.8772 40.3327C31.589 40.4936 32.2108 40.9239 32.6121 41.5334C32.7025 41.6789 32.7801 41.832 32.8439 41.991C33.5272 43.68 32.6706 45.6371 31.6829 47.052Z" fill="white"/>
</g>
<defs>
<clipPath id="clip0_6_122">
<rect width="54.2588" height="71" fill="white" transform="translate(0.709961 0.0349121)"/>
</clipPath>
</defs>
</svg>
