<svg width="70" height="83" viewBox="0 0 70 83" fill="none" xmlns="http://www.w3.org/2000/svg">
<g clip-path="url(#clip0_6_112)">
<path d="M47.7607 44.8615C49.4096 45.5189 50.3624 46.2971 50.3624 47.1293C50.3624 49.4969 42.6633 51.4152 33.166 51.4152C23.6688 51.4152 15.9697 49.4969 15.9697 47.1251C15.9697 45.8185 17.6422 44.8435 21.3353 44.057" stroke="#231F20" stroke-width="0.197614" stroke-miterlimit="10"/>
<path d="M25.4932 43.2928C28.0405 42.9863 30.6024 42.8363 33.1661 42.8434C39.317 42.8434 44.7232 43.6492 47.7607 44.8615" stroke="#231F20" stroke-width="0.197614" stroke-miterlimit="10"/>
<path d="M33.5403 50.5927C24.7 50.5927 16.8989 49.5427 15.9422 47.1861C15.9403 47.183 15.9375 47.1806 15.9342 47.1793C15.9308 47.1781 15.9272 47.178 15.9239 47.1792C15.9202 47.1804 15.9169 47.1828 15.9147 47.1861L15.8728 80.4749C15.8728 81.5304 16.8792 82.3876 18.1238 82.389H48.2043C49.4698 82.389 50.4959 81.5193 50.4972 80.4471L50.4226 47.2874C50.4228 47.2847 50.4224 47.2821 50.4216 47.2795C50.4207 47.277 50.4194 47.2747 50.4177 47.2728C50.416 47.2708 50.4139 47.2693 50.4116 47.2682C50.4093 47.2671 50.4068 47.2666 50.4043 47.2666C50.3992 47.2657 50.3941 47.2667 50.3898 47.2695C50.3854 47.2723 50.3822 47.2767 50.3807 47.2819C49.4306 49.4054 42.3269 50.5927 33.5403 50.5927Z" fill="#231F20"/>
<path d="M33.6632 55.4931C31.2029 46.2444 34.4079 37.7391 41.0757 31.7846" stroke="#231F20" stroke-width="0.392611" stroke-linecap="round" stroke-linejoin="round"/>
<path d="M30.6521 59.5474C30.0239 54.242 29.9362 48.8381 30.211 43.5133C30.3184 41.8072 30.5565 40.1131 30.923 38.4479C31.6585 34.9012 32.729 31.3948 33.0993 27.801C33.31 25.7607 33.1124 22.5026 30.0893 22.1544" stroke="#231F20" stroke-width="0.392611" stroke-linecap="round" stroke-linejoin="round"/>
<path d="M22.5967 45.3428L30.0197 51.0089" stroke="#231F20" stroke-width="0.392611" stroke-linecap="round" stroke-linejoin="round"/>
<path d="M59.251 13.3814L58.3559 13.344C58.1941 13.3356 58.035 13.39 57.9083 13.4969C57.7815 13.6039 57.696 13.7561 57.6675 13.9252C57.4333 15.3801 56.9202 17.1292 56.2096 17.4981C56.0787 17.5619 55.5291 17.8504 55.0318 17.6077C54.4612 17.3303 54.1576 16.0737 54.0725 14.8115C54.0531 14.4743 53.9174 14.1565 53.6913 13.9184C53.4653 13.6803 53.1645 13.5386 52.8463 13.5201C51.9877 13.4744 51.1253 13.4355 50.2642 13.4064C49.9538 13.3972 49.6507 13.5069 49.4103 13.7152C49.17 13.9236 49.0085 14.2167 48.9555 14.541C48.7592 15.7477 48.6205 17.0515 48.5838 17.2124C48.2056 18.8866 46.4794 21.7674 45.1341 19.5177C44.6381 18.6854 44.6368 17.1999 44.8147 15.7075C44.8403 15.5086 44.8233 15.3061 44.7648 15.1152C44.7063 14.9242 44.6079 14.7497 44.477 14.6047C44.346 14.4596 44.1859 14.3478 44.0085 14.2774C43.8311 14.2071 43.641 14.1801 43.4524 14.1984C38.7005 14.7657 36.299 18.1861 35.3384 21.7536C34.3425 25.4472 36.1551 32.3463 39.1926 31.4128C40.5301 30.9967 40.7329 31.6042 40.9803 31.3795C43.8476 28.7816 47.0801 26.1366 51.9629 23.5525C57.7068 20.5122 58.5221 19.9573 59.2916 20.4581C59.6698 20.7063 57.7774 20.6495 49.335 25.8023C46.325 27.6415 43.5767 30.1201 41.5351 31.9524C41.1792 32.27 41.6909 32.8456 41.1321 34.4768C40.6505 35.8846 42.5023 38.3397 43.4445 39.4701C45.8002 42.2802 49.4868 42.6936 52.6055 41.1484L52.8004 41.0513C53.9115 40.4965 53.9181 39.588 52.8135 39.0249C50.6267 37.9152 47.3994 36.3465 47.4976 35.9484C47.5957 35.5503 48.1637 35.3686 48.3744 35.3048C49.4397 34.9844 51.9537 36.1898 54.1628 37.4464C54.6948 37.7432 55.316 37.8045 55.8905 37.6168C56.465 37.4291 56.9459 37.0077 57.2278 36.445V36.4339C57.8559 35.1744 58.276 33.8102 58.4697 32.4004C58.4972 32.2048 58.5299 32.0093 58.5666 31.8151C58.5877 31.6942 58.5792 31.5697 58.5419 31.4533C58.5045 31.337 58.4396 31.2328 58.3533 31.1507C57.6077 30.4365 56.9332 29.6431 56.3405 28.783C55.9073 28.1505 55.2386 25.787 57.182 25.9465C57.9895 26.0131 59.6685 28.3822 60.8464 29.0701C60.9325 29.1218 61.0285 29.1524 61.1272 29.1596C61.2259 29.1668 61.325 29.1504 61.4169 29.1117C66.445 26.9508 68.5428 18.4164 69.082 15.7602C69.119 15.5772 69.086 15.3862 68.9903 15.2289C68.8947 15.0716 68.7441 14.9609 68.5716 14.921L68.4931 14.9086C65.4059 14.6006 62.3501 13.4979 59.251 13.3814Z" fill="#3361BB"/>
<path d="M4.50036 13.6131C4.65348 13.9224 4.80005 14.2359 4.94401 14.5507C5.02266 14.7212 5.15715 14.8554 5.32236 14.9284C5.48757 15.0014 5.67221 15.0082 5.84178 14.9474C7.29706 14.4134 9.1685 14.007 9.88436 14.541C10.0152 14.6354 10.5688 15.0515 10.6081 15.6853C10.6552 16.4205 9.67235 17.3997 8.56388 18.1598C8.26832 18.3602 8.05202 18.6682 7.95562 19.0258C7.85922 19.3834 7.88937 19.766 8.0404 20.1016C8.45657 21.0074 8.88059 21.9145 9.31246 22.8133C9.46854 23.1377 9.73011 23.3912 10.0488 23.5271C10.3676 23.663 10.7219 23.672 11.0465 23.5526C12.2544 23.1129 13.5212 22.5608 13.6861 22.5123C15.4189 22.0088 18.972 22.2474 17.6332 24.8273C17.1398 25.7774 15.7774 26.5721 14.3261 27.1852C13.4951 27.5347 13.1483 28.6152 13.6717 29.3878C16.7223 33.965 21.1314 34.6086 24.9017 33.6973C28.8095 32.7527 34.149 27.2157 31.6782 24.5942C30.5893 23.4388 31.0317 22.9104 30.6954 22.7814C26.7915 21.2196 22.6534 19.3138 17.6895 15.6742C11.8461 11.3994 10.8999 10.8599 10.9575 9.81404C10.9824 9.2939 11.9403 11.2635 21.1471 17.1861C24.4345 19.3013 28.1591 20.7924 30.9244 21.9186C31.4047 22.1128 31.6586 21.282 33.4462 20.9866C34.9892 20.73 36.2482 17.519 36.7743 15.9544C38.0908 12.0416 36.5021 8.0317 33.4266 5.65017L33.2211 5.50176C32.1271 4.65567 31.283 5.13836 31.3615 6.56838C31.5081 9.40764 31.7999 13.5535 31.3824 13.6658C30.9649 13.7782 30.499 13.2913 30.3276 13.111C29.4665 12.1872 29.2296 8.96379 29.2008 6.02467C29.1908 5.31969 28.9171 4.64778 28.4397 4.1567C27.9624 3.66562 27.3206 3.39558 26.6554 3.40595H26.641C25.155 3.43212 23.6841 3.72766 22.2922 4.27978C22.0994 4.35653 21.9035 4.42773 21.7046 4.49339C21.5829 4.53574 21.4736 4.61076 21.3874 4.71114C21.3011 4.81152 21.2409 4.93385 21.2125 5.06623C20.956 6.21235 20.5898 7.32775 20.1197 8.3951C19.7716 9.17739 17.9682 11.1234 17.0796 9.04146C16.7092 8.17595 17.98 5.18968 17.9839 3.62094C17.9849 3.50615 17.962 3.39255 17.9167 3.28825C17.8715 3.18395 17.805 3.09152 17.7222 3.01759C13.0658 -0.993707 4.15225 1.39892 1.43276 2.26027C1.34008 2.28951 1.25374 2.33783 1.1787 2.40248C1.10366 2.46712 1.04138 2.54681 0.995434 2.637C0.949485 2.72718 0.920767 2.82608 0.910924 2.92804C0.901081 3.03 0.910307 3.13301 0.938072 3.23119C0.946136 3.26194 0.956193 3.29206 0.968172 3.32135C2.33577 6.6419 2.95609 10.3688 4.50036 13.6131Z" fill="#3361BB"/>
<path d="M16.7245 41.4854C13.0078 38.7474 9.16807 37.5296 9.29501 37.237C9.36175 37.0816 10.3524 37.4311 10.6783 37.5463C14.963 39.0609 21.5772 43.5993 24.4105 46.064C24.934 45.0099 23.8713 43.3843 21.8887 41.38C20.9503 41.6089 19.7947 41.466 19.0095 40.8432C18.8786 40.7406 18.0934 40.1123 18.1196 39.2495C18.137 38.9517 18.2297 38.6642 18.3879 38.4173C17.4417 37.7238 16.413 37.0483 15.3177 36.3964C9.3539 32.8498 3.71601 31.5182 2.72532 33.424C2.23194 34.3727 2.98706 35.9456 4.60331 37.7238C4.62643 37.4765 4.67023 37.2319 4.73418 36.9928C5.11894 35.5906 6.18292 35.0136 6.70509 35.6738C7.24689 36.359 7.25605 38.4478 6.7967 39.8127C8.04971 40.8613 9.3665 41.8213 10.7385 42.6866C11.1625 41.4189 12.1545 40.9195 12.6531 41.5492C13.0013 41.9903 13.1282 43.0112 13.0457 44.0459C17.8631 46.6715 22.2067 47.9435 23.8033 46.9489C22.348 45.8768 20.2567 44.0861 16.7245 41.4854Z" fill="#3361BB"/>
</g>
<defs>
<clipPath id="clip0_6_112">
<rect width="68.203" height="81.6393" fill="white" transform="translate(0.903809 0.752686)"/>
</clipPath>
</defs>
</svg>
