<svg width="38" height="38" viewBox="0 0 38 38" fill="none" xmlns="http://www.w3.org/2000/svg">
<g clip-path="url(#clip0_64_46)">
<path d="M16.2346 29.2119H20.3976V19.1708H23.1729L23.5392 15.71H20.3976V13.9783C20.3976 13.0763 20.4836 12.5906 21.7852 12.5906H23.5142V9.13257H20.7389C17.4086 9.13257 16.2457 10.8116 16.2457 13.6341V15.71H14.167V19.1708H16.2346V29.2119Z" fill="black"/>
<path d="M18.8464 37.6266C29.0393 37.6266 37.3022 29.3637 37.3022 19.1709C37.3022 8.97802 29.0393 0.715088 18.8464 0.715088C8.65356 0.715088 0.390625 8.97802 0.390625 19.1709C0.390625 29.3637 8.65356 37.6266 18.8464 37.6266Z" stroke="black" stroke-width="0.619818" stroke-miterlimit="10"/>
</g>
<defs>
<clipPath id="clip0_64_46">
<rect width="37.1891" height="37.1891" fill="white" transform="translate(0.251953 0.576294)"/>
</clipPath>
</defs>
</svg>
