<svg width="584" height="90" viewBox="0 0 584 90" fill="none" xmlns="http://www.w3.org/2000/svg">
<path d="M583.113 45.1154C583.113 47.9326 581.229 50.7866 577.386 53.6357C573.556 56.4752 567.876 59.2354 560.512 61.8766C545.791 67.1569 524.461 71.9208 498.069 75.9247C445.295 83.9312 372.369 88.8854 291.806 88.8854C211.243 88.8854 138.318 83.9312 85.5431 75.9247C59.1518 71.9208 37.8217 67.1569 23.1004 61.8766C15.7367 59.2354 10.0563 56.4752 6.22625 53.6357C2.38342 50.7866 0.5 47.9326 0.5 45.1154C0.5 42.2982 2.38342 39.4441 6.22625 36.5951C10.0563 33.7555 15.7367 30.9953 23.1004 28.3541C37.8217 23.0738 59.1518 18.3099 85.5431 14.3061C138.318 6.29958 211.243 1.34534 291.806 1.34534C372.369 1.34534 445.295 6.29958 498.069 14.3061C524.461 18.3099 545.791 23.0738 560.512 28.3541C567.876 30.9953 573.556 33.7555 577.386 36.5951C581.229 39.4441 583.113 42.2982 583.113 45.1154Z" stroke="black"/>
</svg>
