<svg width="38" height="38" viewBox="0 0 38 38" fill="none" xmlns="http://www.w3.org/2000/svg">
<g clip-path="url(#clip0_64_49)">
<path d="M19.0595 37.4891C29.253 37.4891 37.5164 29.2256 37.5164 19.0321C37.5164 8.83864 29.253 0.575195 19.0595 0.575195C8.86599 0.575195 0.602539 8.83864 0.602539 19.0321C0.602539 29.2256 8.86599 37.4891 19.0595 37.4891Z" stroke="black" stroke-width="0.619818" stroke-miterlimit="10"/>
<path fill-rule="evenodd" clip-rule="evenodd" d="M29.4184 27.7293V20.5238C29.4184 16.6706 27.3569 14.8651 24.6074 14.8651C23.8502 14.8344 23.0991 15.0119 22.4358 15.3783C21.7725 15.7447 21.2223 16.2859 20.845 16.9431V15.1623H16.667C16.722 16.3403 16.667 27.7293 16.667 27.7293H20.845V20.711C20.8291 20.366 20.8757 20.021 20.9826 19.6926C21.1382 19.2482 21.4276 18.8627 21.811 18.5893C22.1944 18.3158 22.653 18.1676 23.1239 18.1651C24.6377 18.1651 25.2404 19.3156 25.2404 21.0055V27.7293H29.4184Z" fill="#020202"/>
<path fill-rule="evenodd" clip-rule="evenodd" d="M12.2664 13.4448C13.7224 13.4448 14.6306 12.4788 14.6306 11.2733C14.6306 10.0677 13.7224 9.10168 12.2939 9.10168C10.8655 9.10168 9.92969 10.0402 9.92969 11.2733C9.92969 12.5063 10.8379 13.4448 12.2389 13.4448H12.2664Z" fill="#020202"/>
<path d="M14.3557 15.1622H10.1777V27.7292H14.3557V15.1622Z" fill="#020202"/>
</g>
<defs>
<clipPath id="clip0_64_49">
<rect width="37.1891" height="37.1891" fill="white" transform="translate(0.464844 0.4375)"/>
</clipPath>
</defs>
</svg>
