<svg width="38" height="38" viewBox="0 0 38 38" fill="none" xmlns="http://www.w3.org/2000/svg">
<g clip-path="url(#clip0_64_40)">
<path d="M18.9503 0.849976C23.8457 0.849976 28.5407 2.79448 32.0025 6.25579C35.4643 9.71711 37.4095 14.4118 37.4102 19.3071C37.4102 24.203 35.4653 28.8983 32.0034 32.3602C28.5415 35.8221 23.8462 37.767 18.9503 37.767V37.767C14.0549 37.7663 9.3603 35.8211 5.89898 32.3593C2.43767 28.8975 0.493164 24.2025 0.493164 19.3071V19.3071C0.493164 14.412 2.43775 9.71735 5.89914 6.25596C9.36054 2.79457 14.0552 0.849976 18.9503 0.849976V0.849976Z" stroke="black" stroke-width="0.0867745" stroke-miterlimit="10"/>
<path d="M14.6669 28.6865C23.3702 28.6865 28.1354 21.4728 28.1354 15.218C28.1354 15.0133 28.1354 14.8059 28.1192 14.6039C29.0473 13.9342 29.8482 13.104 30.4843 12.1526C29.6207 12.5357 28.7045 12.7873 27.7663 12.8988C28.7542 12.3065 29.4939 11.3763 29.8486 10.2805C28.9196 10.8322 27.9027 11.2204 26.8424 11.428C26.129 10.6702 25.1859 10.1684 24.1588 10C23.1317 9.83167 22.0778 10.0062 21.1598 10.4966C20.2418 10.987 19.5108 11.7661 19.0797 12.7134C18.6487 13.6607 18.5415 14.7236 18.7748 15.7379C16.894 15.6425 15.0542 15.1532 13.3745 14.3017C11.6947 13.4502 10.2125 12.2556 9.02364 10.795C8.41843 11.8372 8.23308 13.0708 8.50531 14.2448C8.77754 15.4188 9.4869 16.445 10.489 17.1144C9.73368 17.0941 8.9944 16.8918 8.33406 16.5245V16.5837C8.33632 17.6769 8.71652 18.7357 9.41021 19.5806C10.1039 20.4255 11.0684 21.0046 12.1402 21.2196C11.4428 21.4091 10.7112 21.4368 10.0015 21.3004C10.3037 22.2418 10.8924 23.0653 11.6854 23.6559C12.4783 24.2466 13.436 24.5748 14.4245 24.5948C12.7494 25.9135 10.6787 26.629 8.54686 26.6258C8.17042 26.6267 7.79432 26.6033 7.4209 26.5558C9.58073 27.9482 12.0972 28.6863 14.6669 28.6811" fill="black"/>
<path d="M18.9503 0.849976C23.8457 0.849976 28.5407 2.79448 32.0025 6.25579C35.4643 9.71711 37.4095 14.4118 37.4102 19.3071C37.4102 24.203 35.4653 28.8983 32.0034 32.3602C28.5415 35.8221 23.8462 37.767 18.9503 37.767V37.767C14.0549 37.7663 9.3603 35.8211 5.89898 32.3593C2.43767 28.8975 0.493164 24.2025 0.493164 19.3071V19.3071C0.493164 14.412 2.43775 9.71735 5.89914 6.25596C9.36054 2.79457 14.0552 0.849976 18.9503 0.849976V0.849976Z" stroke="black" stroke-width="0.619818" stroke-miterlimit="10"/>
</g>
<defs>
<clipPath id="clip0_64_40">
<rect width="37.1891" height="37.1891" fill="white" transform="translate(0.358398 0.71521)"/>
</clipPath>
</defs>
</svg>
