<svg width="230" height="151" viewBox="0 0 230 151" fill="none" xmlns="http://www.w3.org/2000/svg">
<g clip-path="url(#clip0_144_659)">
<path d="M228.759 29.8661V23.8686C228.759 23.6211 228.661 23.3836 228.486 23.2086C228.311 23.0335 228.074 22.9352 227.826 22.9352H222.93C222.716 22.9352 222.508 22.8613 222.342 22.7259C222.176 22.5906 222.062 22.4021 222.019 22.1923C221.548 19.9053 220.689 17.7158 219.479 15.7186C219.368 15.53 219.326 15.309 219.359 15.0928C219.392 14.8765 219.498 14.6782 219.66 14.5312L222.664 11.8611C222.756 11.7802 222.831 11.6819 222.885 11.5718C222.94 11.4617 222.971 11.3419 222.979 11.2194C222.987 11.097 222.97 10.9742 222.93 10.8582C222.89 10.7422 222.828 10.6352 222.746 10.5435L218.79 6.03826C218.709 5.94595 218.611 5.87055 218.501 5.8164C218.391 5.76225 218.271 5.73042 218.149 5.72275C218.026 5.71507 217.903 5.73171 217.787 5.77169C217.671 5.81167 217.564 5.87421 217.473 5.95571L214.091 8.94966C213.94 9.0835 213.748 9.16427 213.547 9.17974C213.345 9.1952 213.144 9.14453 212.974 9.03538C211.106 7.83215 209.056 6.94004 206.903 6.39385C206.702 6.34347 206.523 6.22698 206.395 6.06297C206.267 5.89897 206.198 5.69689 206.198 5.48899V1.52034C206.198 1.27278 206.1 1.03536 205.925 0.860308C205.75 0.685256 205.513 0.586914 205.265 0.586914H197.899C197.652 0.586914 197.414 0.685256 197.239 0.860308C197.064 1.03536 196.966 1.27278 196.966 1.52034V5.60329C196.968 5.8035 196.905 5.99907 196.788 6.16094C196.67 6.32282 196.503 6.44236 196.312 6.50179C193.872 7.17731 191.577 8.29664 189.543 9.80372C189.37 9.92636 189.161 9.98794 188.95 9.97874C188.738 9.96954 188.536 9.89008 188.374 9.75292L184.78 6.57799C184.688 6.49689 184.581 6.43469 184.465 6.39494C184.349 6.3552 184.227 6.33869 184.104 6.34635C183.982 6.35402 183.862 6.38571 183.752 6.43962C183.642 6.49353 183.544 6.5686 183.463 6.66054L179.485 11.1626C179.325 11.3505 179.244 11.5933 179.259 11.8396C179.274 12.086 179.385 12.3168 179.567 12.4834L183.275 15.7535C183.432 15.8909 183.539 16.0772 183.577 16.2823C183.615 16.4874 183.582 16.6993 183.485 16.8838C182.609 18.5563 181.968 20.3415 181.58 22.1891C181.537 22.4 181.423 22.5897 181.256 22.7257C181.09 22.8617 180.881 22.9358 180.666 22.9352H175.554C175.431 22.9348 175.31 22.9586 175.196 23.0054C175.083 23.0522 174.98 23.1209 174.893 23.2077C174.806 23.2944 174.738 23.3975 174.691 23.5109C174.644 23.6244 174.62 23.7459 174.621 23.8686V29.8661C174.62 29.9889 174.644 30.1106 174.691 30.2242C174.737 30.3379 174.806 30.4411 174.893 30.5281C174.98 30.6152 175.083 30.6842 175.196 30.7313C175.31 30.7784 175.431 30.8027 175.554 30.8027H180.888C181.095 30.802 181.297 30.8706 181.461 30.9978C181.625 31.1249 181.742 31.3032 181.793 31.5043C182.271 33.3846 183.013 35.1878 183.996 36.8604C184.107 37.0469 184.15 37.2665 184.116 37.481C184.083 37.6956 183.975 37.8916 183.812 38.0351L179.561 41.7847C179.469 41.8658 179.394 41.9642 179.34 42.0743C179.286 42.1844 179.254 42.3041 179.247 42.4264C179.239 42.5488 179.255 42.6714 179.295 42.7874C179.335 42.9034 179.397 43.0104 179.478 43.1023L183.447 47.6012C183.528 47.6935 183.626 47.7689 183.736 47.823C183.846 47.8772 183.966 47.909 184.089 47.9167C184.211 47.9244 184.334 47.9077 184.45 47.8677C184.566 47.8278 184.673 47.7652 184.764 47.6837L189.279 43.7055C189.432 43.5692 189.626 43.4872 189.83 43.4723C190.035 43.4574 190.238 43.5103 190.409 43.623C192.216 44.8229 194.202 45.7285 196.293 46.3058C196.49 46.3601 196.664 46.4778 196.788 46.6407C196.912 46.8036 196.979 47.0028 196.978 47.2075V51.1984C196.978 51.4459 197.077 51.6833 197.252 51.8584C197.427 52.0334 197.664 52.1318 197.912 52.1318H205.259C205.506 52.1318 205.744 52.0334 205.919 51.8584C206.094 51.6833 206.192 51.4459 206.192 51.1984V47.3123C206.192 47.1049 206.261 46.9034 206.388 46.7396C206.515 46.5758 206.693 46.4589 206.894 46.4074C208.95 45.8866 210.913 45.0502 212.713 43.9278C212.883 43.8217 213.083 43.7736 213.283 43.7908C213.483 43.808 213.672 43.8895 213.821 44.023L218.196 47.8837C218.384 48.0438 218.627 48.1247 218.873 48.1093C219.12 48.0939 219.351 47.9834 219.517 47.8012L223.483 43.3023C223.643 43.1144 223.724 42.8717 223.708 42.6253C223.693 42.3789 223.582 42.1481 223.4 41.9816L219.489 38.5399C219.323 38.3938 219.214 38.1936 219.183 37.9751C219.151 37.7565 219.197 37.5336 219.314 37.3462C220.446 35.5422 221.289 33.5721 221.813 31.5075C221.864 31.3061 221.98 31.1274 222.144 30.9997C222.308 30.872 222.51 30.8027 222.718 30.8027H227.826C228.073 30.7978 228.308 30.6974 228.482 30.5227C228.656 30.348 228.755 30.1126 228.759 29.8661V29.8661Z" fill="black" stroke="#221F20" stroke-width="1.06995" stroke-miterlimit="10"/>
<path d="M202.061 35.5333C207.216 35.5333 211.395 31.3542 211.395 26.199C211.395 21.0438 207.216 16.8647 202.061 16.8647C196.906 16.8647 192.727 21.0438 192.727 26.199C192.727 31.3542 196.906 35.5333 202.061 35.5333Z" fill="white" stroke="#221F20" stroke-width="0.317492" stroke-miterlimit="10"/>
<path d="M23.4689 97.5907V98.5432C23.4693 98.747 23.4027 98.9454 23.2794 99.1078C23.156 99.2701 22.9828 99.3874 22.7863 99.4417C20.3471 100.117 18.0534 101.236 16.0205 102.744C15.8476 102.867 15.6383 102.929 15.426 102.92C15.2137 102.911 15.0106 102.831 14.849 102.693L11.255 99.5179C11.067 99.3578 10.8243 99.2769 10.5779 99.2923C10.3315 99.3077 10.1007 99.4182 9.9342 99.6004L5.96872 104.112C5.80863 104.3 5.72777 104.543 5.74316 104.789C5.75856 105.035 5.86903 105.266 6.05127 105.433L9.75958 108.703C9.91561 108.841 10.021 109.027 10.059 109.232C10.097 109.437 10.0653 109.648 9.96912 109.833C9.09191 111.505 8.45081 113.291 8.06417 115.139C8.0197 115.346 7.90713 115.533 7.74434 115.669C7.58155 115.806 7.37787 115.884 7.16566 115.891H2.04134C1.79378 115.891 1.55636 115.989 1.3813 116.164C1.20625 116.339 1.10791 116.577 1.10791 116.824V122.825C1.10791 123.073 1.20625 123.31 1.3813 123.485C1.55636 123.66 1.79378 123.758 2.04134 123.758H7.37838C7.58614 123.758 7.78794 123.828 7.95184 123.955C8.11574 124.083 8.23236 124.262 8.28324 124.463C8.76021 126.344 9.5021 128.147 10.4866 129.819C10.5934 130.007 10.633 130.226 10.5989 130.44C10.5649 130.653 10.4592 130.849 10.2993 130.994L6.05127 134.734C5.95896 134.815 5.88356 134.913 5.82941 135.023C5.77526 135.134 5.74343 135.253 5.73576 135.376C5.72808 135.498 5.74472 135.621 5.7847 135.737C5.82468 135.853 5.88722 135.96 5.96872 136.052L9.94372 140.551C10.1103 140.733 10.341 140.843 10.5874 140.859C10.8338 140.874 11.0766 140.793 11.2645 140.633L15.7665 136.655C15.9198 136.519 16.1135 136.437 16.3177 136.423C16.522 136.408 16.7254 136.46 16.8968 136.572C18.705 137.772 20.6917 138.677 22.7831 139.255C22.9789 139.312 23.1512 139.431 23.2746 139.593C23.3981 139.755 23.4662 139.953 23.4689 140.157V144.148C23.4685 144.27 23.4923 144.392 23.5391 144.505C23.5859 144.619 23.6546 144.722 23.7414 144.809C23.8281 144.896 23.9312 144.964 24.0446 145.011C24.1581 145.058 24.2796 145.082 24.4023 145.081H31.7459C31.8701 145.084 31.9935 145.061 32.109 145.016C32.2244 144.97 32.3296 144.902 32.4183 144.815C32.507 144.728 32.5775 144.624 32.6256 144.509C32.6737 144.395 32.6984 144.272 32.6984 144.148V140.271C32.6975 140.064 32.7657 139.863 32.8923 139.699C33.0188 139.535 33.1964 139.418 33.3969 139.366C35.4535 138.846 37.4168 138.01 39.2165 136.887C39.3867 136.781 39.5866 136.733 39.7864 136.75C39.9862 136.767 40.175 136.848 40.3246 136.982L44.7028 140.843C44.7947 140.924 44.9017 140.986 45.0177 141.026C45.1337 141.065 45.2563 141.082 45.3787 141.074C45.501 141.067 45.6207 141.035 45.7308 140.981C45.8409 140.927 45.9393 140.852 46.0204 140.76L49.989 136.261C50.1491 136.073 50.23 135.831 50.2146 135.584C50.1992 135.338 50.0887 135.107 49.9065 134.94L45.9791 131.489C45.8129 131.344 45.704 131.143 45.672 130.925C45.64 130.706 45.687 130.483 45.8045 130.296C46.9336 128.492 47.7765 126.525 48.3031 124.463C48.3535 124.262 48.47 124.083 48.634 123.955C48.798 123.827 49.0001 123.758 49.208 123.758H54.3133C54.5608 123.758 54.7983 123.66 54.9733 123.485C55.1484 123.31 55.2467 123.073 55.2467 122.825V116.824C55.2471 116.702 55.2233 116.58 55.1765 116.467C55.1297 116.353 55.061 116.25 54.9742 116.163C54.8875 116.077 54.7844 116.008 54.671 115.961C54.5575 115.914 54.436 115.891 54.3133 115.891H49.4207C49.2061 115.891 48.9981 115.817 48.8315 115.682C48.665 115.547 48.5501 115.358 48.5063 115.148C48.0353 112.861 47.1762 110.672 45.9664 108.674C45.8556 108.486 45.8132 108.265 45.8461 108.049C45.8791 107.832 45.9855 107.634 46.1474 107.487L49.1763 104.817C49.3576 104.65 49.4674 104.42 49.4828 104.175C49.4982 103.929 49.4179 103.687 49.2588 103.499L45.2901 99.0004C45.1236 98.8181 44.8928 98.7077 44.6464 98.6923C44.4 98.6769 44.1573 98.7577 43.9694 98.9178L40.5849 101.905C40.4313 102.037 40.24 102.116 40.0385 102.131C39.8371 102.147 39.6359 102.098 39.4642 101.991C37.5976 100.787 35.5472 99.8946 33.3937 99.3496C33.1926 99.2986 33.0143 99.1819 32.8872 99.0179C32.76 98.854 32.6913 98.6522 32.692 98.4448V94.4761C32.6921 94.3519 32.6673 94.229 32.6192 94.1144C32.5711 93.9999 32.5007 93.8962 32.412 93.8093C32.3232 93.7223 32.2181 93.654 32.1026 93.6082C31.9872 93.5624 31.8637 93.5401 31.7396 93.5427H24.4023C24.2796 93.5423 24.1581 93.5661 24.0446 93.6129C23.9312 93.6596 23.8281 93.7284 23.7414 93.8151C23.6546 93.9019 23.5859 94.005 23.5391 94.1184C23.4923 94.2318 23.4685 94.3534 23.4689 94.4761V97.5971" fill="black"/>
<path d="M23.4689 97.5907V98.5432C23.4693 98.747 23.4027 98.9454 23.2794 99.1078C23.156 99.2701 22.9828 99.3874 22.7863 99.4417C20.3471 100.117 18.0534 101.236 16.0205 102.744C15.8476 102.867 15.6383 102.929 15.426 102.92C15.2137 102.911 15.0106 102.831 14.849 102.693L11.255 99.5179C11.067 99.3578 10.8243 99.2769 10.5779 99.2923C10.3315 99.3077 10.1007 99.4182 9.9342 99.6004L5.96872 104.112C5.80863 104.3 5.72777 104.543 5.74316 104.789C5.75856 105.035 5.86903 105.266 6.05127 105.433L9.75958 108.703C9.91561 108.841 10.021 109.027 10.059 109.232C10.097 109.437 10.0653 109.648 9.96912 109.833C9.09191 111.505 8.45081 113.291 8.06417 115.139C8.0197 115.346 7.90713 115.533 7.74434 115.669C7.58155 115.806 7.37787 115.884 7.16566 115.891H2.04134C1.79378 115.891 1.55636 115.989 1.3813 116.164C1.20625 116.339 1.10791 116.577 1.10791 116.824V122.825C1.10791 123.073 1.20625 123.31 1.3813 123.485C1.55636 123.66 1.79378 123.758 2.04134 123.758H7.37838C7.58614 123.758 7.78794 123.828 7.95184 123.955C8.11574 124.083 8.23236 124.262 8.28324 124.463C8.76021 126.344 9.5021 128.147 10.4866 129.819C10.5934 130.007 10.633 130.226 10.5989 130.44C10.5649 130.653 10.4592 130.849 10.2993 130.994L6.05127 134.734C5.95896 134.815 5.88356 134.913 5.82941 135.023C5.77526 135.134 5.74343 135.253 5.73576 135.376C5.72808 135.498 5.74472 135.621 5.7847 135.737C5.82468 135.853 5.88722 135.96 5.96872 136.052L9.94372 140.551C10.1103 140.733 10.341 140.843 10.5874 140.859C10.8338 140.874 11.0766 140.793 11.2645 140.633L15.7665 136.655C15.9198 136.519 16.1135 136.437 16.3177 136.423C16.522 136.408 16.7254 136.46 16.8968 136.572C18.705 137.772 20.6917 138.677 22.7831 139.255C22.9789 139.312 23.1512 139.431 23.2746 139.593C23.3981 139.755 23.4662 139.953 23.4689 140.157V144.148C23.4685 144.27 23.4923 144.392 23.5391 144.505C23.5859 144.619 23.6546 144.722 23.7414 144.809C23.8281 144.896 23.9312 144.964 24.0446 145.011C24.1581 145.058 24.2796 145.082 24.4023 145.081H31.7459C31.8701 145.084 31.9935 145.061 32.109 145.016C32.2244 144.97 32.3296 144.902 32.4183 144.815C32.507 144.728 32.5775 144.624 32.6256 144.509C32.6737 144.395 32.6984 144.272 32.6984 144.148V140.271C32.6975 140.064 32.7657 139.863 32.8923 139.699C33.0188 139.535 33.1964 139.418 33.3969 139.366C35.4535 138.846 37.4168 138.01 39.2165 136.887C39.3867 136.781 39.5866 136.733 39.7864 136.75C39.9862 136.767 40.175 136.848 40.3246 136.982L44.7028 140.843C44.7947 140.924 44.9017 140.986 45.0177 141.026C45.1337 141.065 45.2563 141.082 45.3787 141.074C45.501 141.067 45.6207 141.035 45.7308 140.981C45.8409 140.927 45.9393 140.852 46.0204 140.76L49.989 136.261C50.1491 136.073 50.23 135.831 50.2146 135.584C50.1992 135.338 50.0887 135.107 49.9065 134.94L45.9791 131.489C45.8129 131.344 45.704 131.143 45.672 130.925C45.64 130.706 45.687 130.483 45.8045 130.296C46.9336 128.492 47.7765 126.525 48.3031 124.463C48.3535 124.262 48.47 124.083 48.634 123.955C48.798 123.827 49.0001 123.758 49.208 123.758H54.3133C54.5608 123.758 54.7983 123.66 54.9733 123.485C55.1484 123.31 55.2467 123.073 55.2467 122.825V116.824C55.2471 116.702 55.2233 116.58 55.1765 116.467C55.1297 116.353 55.061 116.25 54.9742 116.163C54.8875 116.077 54.7844 116.008 54.671 115.961C54.5575 115.914 54.436 115.891 54.3133 115.891H49.4207C49.2061 115.891 48.9981 115.817 48.8315 115.682C48.665 115.547 48.5501 115.358 48.5063 115.148C48.0353 112.861 47.1762 110.672 45.9664 108.674C45.8556 108.486 45.8132 108.265 45.8461 108.049C45.8791 107.832 45.9855 107.634 46.1474 107.487L49.1763 104.817C49.3576 104.65 49.4674 104.42 49.4828 104.175C49.4982 103.929 49.4179 103.687 49.2588 103.499L45.2901 99.0004C45.1236 98.8181 44.8928 98.7077 44.6464 98.6923C44.4 98.6769 44.1573 98.7577 43.9694 98.9178L40.5849 101.905C40.4313 102.037 40.24 102.116 40.0385 102.131C39.8371 102.147 39.6359 102.098 39.4642 101.991C37.5976 100.787 35.5472 99.8946 33.3937 99.3496C33.1926 99.2986 33.0143 99.1819 32.8872 99.0179C32.76 98.854 32.6913 98.6522 32.692 98.4448V94.4761C32.6921 94.3519 32.6673 94.229 32.6192 94.1144C32.5711 93.9999 32.5007 93.8962 32.412 93.8093C32.3232 93.7223 32.2181 93.654 32.1026 93.6082C31.9872 93.5624 31.8637 93.5401 31.7396 93.5427H24.4023C24.2796 93.5423 24.1581 93.5661 24.0446 93.6129C23.9312 93.6596 23.8281 93.7284 23.7414 93.8151C23.6546 93.9019 23.5859 94.005 23.5391 94.1184C23.4923 94.2318 23.4685 94.3534 23.4689 94.4761V97.5971" stroke="#221F20" stroke-width="1.06995" stroke-miterlimit="10"/>
<path d="M28.5481 128.483C26.702 128.483 24.8973 127.935 23.3623 126.909C21.8273 125.884 20.6309 124.426 19.9244 122.72C19.2179 121.015 19.0331 119.138 19.3932 117.327C19.7534 115.517 20.6424 113.853 21.9478 112.548C23.2532 111.242 24.9164 110.353 26.7271 109.993C28.5378 109.633 30.4146 109.818 32.1202 110.524C33.8258 111.231 35.2836 112.427 36.3093 113.962C37.335 115.497 37.8824 117.302 37.8824 119.148C37.8824 121.624 36.899 123.998 35.1485 125.749C33.398 127.499 31.0237 128.483 28.5481 128.483" fill="white"/>
<path d="M28.5481 128.483C26.702 128.483 24.8973 127.935 23.3623 126.909C21.8273 125.884 20.6309 124.426 19.9244 122.72C19.2179 121.015 19.0331 119.138 19.3932 117.327C19.7534 115.517 20.6424 113.853 21.9478 112.548C23.2532 111.242 24.9164 110.353 26.7271 109.993C28.5378 109.633 30.4146 109.818 32.1202 110.524C33.8258 111.231 35.2836 112.427 36.3093 113.962C37.335 115.497 37.8824 117.302 37.8824 119.148C37.8824 121.624 36.899 123.998 35.1485 125.749C33.398 127.499 31.0237 128.483 28.5481 128.483" stroke="#221F20" stroke-width="1.06995" stroke-miterlimit="10"/>
<path d="M121.726 64.0496C137.869 64.0496 150.955 50.9636 150.955 34.8212C150.955 18.6788 137.869 5.59277 121.726 5.59277C105.584 5.59277 92.498 18.6788 92.498 34.8212C92.498 50.9636 105.584 64.0496 121.726 64.0496Z" fill="#3361BB"/>
<path d="M121.727 138.917C147.307 138.917 168.044 122.713 168.044 102.724C168.044 82.7343 147.307 66.5298 121.727 66.5298C96.1462 66.5298 75.4092 82.7343 75.4092 102.724C75.4092 122.713 96.1462 138.917 121.727 138.917Z" fill="#3361BB"/>
<path d="M40.1436 102.086C52.1892 86.2116 73.2104 69.0194 99.6734 54.564" stroke="#010101" stroke-width="0.634985" stroke-miterlimit="10" stroke-linecap="round"/>
<path d="M28.9106 128.403C28.9106 120.679 32.911 111.618 40.1435 102.086" stroke="#010101" stroke-width="0.809605" stroke-miterlimit="10" stroke-linecap="round"/>
<path d="M223.184 44.0264C227.832 65.6158 194.832 101.096 145.557 126.206C95.4853 151.723 46.6264 157.346 32.7583 139.9" stroke="#010101" stroke-width="0.634985" stroke-miterlimit="10" stroke-linecap="round"/>
<path d="M219.781 36.8096C220.512 37.7234 221.151 38.7083 221.686 39.7495C221.832 40.0385 221.971 40.3306 222.102 40.629" stroke="#010101" stroke-width="0.809605" stroke-miterlimit="10" stroke-linecap="round"/>
<path d="M192.625 26.7739C199.927 26.9327 205.429 28.0439 210.478 30.1393" stroke="#010101" stroke-width="0.634985" stroke-miterlimit="10" stroke-linecap="round"/>
<path d="M151.031 33.0507C159.841 30.5107 166.953 28.7359 174.678 27.7295" stroke="#010101" stroke-width="0.634985" stroke-miterlimit="10" stroke-linecap="round"/>
<path d="M25.9326 93.5042C38.0862 75.8167 62.1998 56.0782 92.5647 40.1655" stroke="#010101" stroke-width="0.634985" stroke-miterlimit="10" stroke-linecap="round"/>
<path d="M210.599 45.2964C203.592 66.3969 174.262 93.714 134.143 114.16C98.127 132.515 62.7393 140.576 40.5498 137.163" stroke="#010101" stroke-width="0.634985" stroke-miterlimit="10" stroke-linecap="round"/>
<path d="M197.829 17.7476C203.759 19.8906 207.88 23.0402 210.258 27.7041C210.528 28.2321 210.769 28.7736 210.982 29.3265" stroke="#010101" stroke-width="0.634985" stroke-miterlimit="10" stroke-linecap="round"/>
<path d="M146.585 19.1538C159.78 15.8677 171.791 14.3914 181.827 14.7692" stroke="#010101" stroke-width="0.634985" stroke-miterlimit="10" stroke-linecap="round"/>
<path d="M221.605 28.9384V24.5283C221.605 24.3449 221.533 24.1687 221.405 24.0377C221.276 23.9067 221.102 23.8313 220.918 23.8276H217.316C217.159 23.828 217.006 23.7738 216.883 23.6742C216.761 23.5745 216.677 23.4356 216.646 23.281C216.299 21.5987 215.667 19.988 214.777 18.5183C214.693 18.3806 214.661 18.2178 214.685 18.0584C214.709 17.899 214.789 17.7533 214.911 17.647L217.137 15.6826C217.271 15.5601 217.352 15.3903 217.363 15.209C217.375 15.0277 217.315 14.8492 217.197 14.7109L214.27 11.4197C214.211 11.3521 214.138 11.2969 214.057 11.2572C213.976 11.2175 213.888 11.1942 213.798 11.1886C213.708 11.1829 213.618 11.1951 213.533 11.2243C213.447 11.2536 213.369 11.2993 213.301 11.359L210.809 13.557C210.698 13.6562 210.557 13.7163 210.409 13.7281C210.26 13.7399 210.112 13.7028 209.987 13.6224C208.613 12.7372 207.105 12.0808 205.521 11.679C205.374 11.6394 205.243 11.5531 205.15 11.433C205.056 11.3128 205.004 11.1655 205.002 11.0133V8.08418C205.002 7.99399 204.984 7.9047 204.95 7.82138C204.915 7.73807 204.865 7.66236 204.801 7.59859C204.737 7.53483 204.661 7.48424 204.578 7.44973C204.495 7.41521 204.405 7.39746 204.315 7.39746H198.91C198.82 7.39746 198.731 7.41521 198.647 7.44973C198.564 7.48424 198.488 7.53483 198.425 7.59859C198.361 7.66236 198.31 7.73807 198.276 7.82138C198.241 7.9047 198.223 7.99399 198.223 8.08418V11.0904C198.224 11.2401 198.175 11.3858 198.085 11.5052C197.995 11.6246 197.868 11.7111 197.724 11.7514C195.929 12.2476 194.24 13.0703 192.744 14.1783C192.618 14.2724 192.463 14.32 192.306 14.3132C192.149 14.3064 191.999 14.2456 191.882 14.141L189.238 11.8051C189.17 11.7452 189.091 11.6992 189.006 11.6697C188.921 11.6403 188.83 11.6281 188.74 11.6338C188.65 11.6394 188.562 11.6628 188.481 11.7027C188.4 11.7425 188.328 11.798 188.268 11.8659L185.348 15.1757C185.289 15.2434 185.243 15.3221 185.214 15.4074C185.184 15.4927 185.172 15.583 185.178 15.673C185.184 15.763 185.207 15.851 185.247 15.932C185.286 16.013 185.341 16.0854 185.409 16.1451L188.137 18.558C188.253 18.659 188.331 18.7961 188.359 18.947C188.387 19.0979 188.363 19.2538 188.292 19.3895C187.648 20.6204 187.177 21.9337 186.89 23.2927C186.858 23.4472 186.773 23.586 186.651 23.6855C186.528 23.7851 186.375 23.8394 186.217 23.8393H182.461C182.37 23.8392 182.28 23.8575 182.195 23.8929C182.111 23.9282 182.035 23.9801 181.971 24.0453C181.907 24.1106 181.856 24.188 181.823 24.2729C181.789 24.3579 181.773 24.4487 181.775 24.54V28.9384C181.772 29.0298 181.789 29.1207 181.822 29.2058C181.856 29.2909 181.906 29.3684 181.97 29.4337C182.034 29.4991 182.11 29.5509 182.195 29.5862C182.279 29.6214 182.37 29.6394 182.461 29.6391H186.386C186.538 29.6386 186.687 29.6891 186.807 29.7827C186.928 29.8762 187.014 30.0074 187.051 30.1553C187.405 31.5321 187.951 32.8523 188.672 34.0772C188.754 34.2144 188.785 34.3759 188.761 34.5338C188.736 34.6916 188.657 34.8358 188.537 34.9414L185.409 37.7C185.341 37.7597 185.286 37.8321 185.247 37.9131C185.207 37.9941 185.184 38.0821 185.178 38.1721C185.172 38.2621 185.184 38.3524 185.214 38.4377C185.243 38.523 185.289 38.6017 185.348 38.6694L188.268 41.9792C188.328 42.0469 188.4 42.1021 188.481 42.1417C188.562 42.1814 188.65 42.2047 188.74 42.2104C188.83 42.216 188.921 42.2039 189.006 42.1746C189.091 42.1454 189.17 42.0996 189.238 42.04L192.559 39.1108C192.673 39.0133 192.816 38.9551 192.965 38.9445C193.115 38.934 193.264 38.9719 193.391 39.0524C194.718 39.9381 196.177 40.6074 197.714 41.0355C197.859 41.075 197.987 41.1612 198.078 41.2806C198.17 41.4001 198.219 41.5463 198.219 41.6966V44.635C198.219 44.8172 198.291 44.9918 198.42 45.1206C198.549 45.2494 198.723 45.3218 198.905 45.3218H204.311C204.493 45.3218 204.667 45.2494 204.796 45.1206C204.925 44.9918 204.997 44.8172 204.997 44.635V41.7853C204.997 41.6328 205.048 41.4846 205.141 41.364C205.235 41.2435 205.366 41.1575 205.514 41.1196C207.027 40.7357 208.471 40.1195 209.795 39.293C209.921 39.2178 210.068 39.1842 210.214 39.1967C210.36 39.2093 210.499 39.2675 210.61 39.3631L213.831 42.2011C213.97 42.3189 214.148 42.3784 214.329 42.3671C214.511 42.3557 214.681 42.2745 214.803 42.1404L217.72 38.8305C217.78 38.763 217.826 38.6844 217.856 38.599C217.885 38.5137 217.898 38.4233 217.892 38.3332C217.886 38.2431 217.863 38.155 217.823 38.074C217.783 37.993 217.728 37.9207 217.66 37.8612L214.782 35.3221C214.66 35.2146 214.58 35.0674 214.557 34.9065C214.533 34.7457 214.568 34.5818 214.654 34.4439C215.486 33.1156 216.106 31.6655 216.492 30.146C216.531 29.9989 216.618 29.8688 216.738 29.7753C216.858 29.6817 217.005 29.6298 217.158 29.6274H220.916C221.006 29.6277 221.096 29.6101 221.18 29.5756C221.264 29.5411 221.34 29.4903 221.404 29.4263C221.468 29.3622 221.519 29.2862 221.553 29.2024C221.588 29.1187 221.605 29.0289 221.605 28.9384V28.9384Z" stroke="white" stroke-miterlimit="10"/>
<circle cx="28.5482" cy="119.148" r="14.7889" stroke="white"/>
</g>
<defs>
<clipPath id="clip0_144_659">
<rect width="228.721" height="150.672" fill="white" transform="translate(0.574219 0.050293)"/>
</clipPath>
</defs>
</svg>
