<svg width="693" height="79" viewBox="0 0 693 79" fill="none" xmlns="http://www.w3.org/2000/svg">
<path d="M692.309 39.7141C692.309 40.909 691.777 42.1339 690.65 43.3928C689.52 44.6547 687.815 45.9227 685.537 47.1854C680.981 49.7106 674.23 52.1623 665.489 54.506C648.017 59.1913 622.711 63.416 591.413 66.9658C528.824 74.0645 442.344 78.4564 346.813 78.4564C251.281 78.4564 164.802 74.0645 102.213 66.9658C70.9151 63.416 45.6089 59.1913 28.1362 54.506C19.396 52.1623 12.6444 49.7106 8.08845 47.1854C5.81015 45.9227 4.10539 44.6547 2.97549 43.3928C1.84822 42.1339 1.31665 40.909 1.31665 39.7141C1.31665 38.5191 1.84822 37.2942 2.97549 36.0353C4.10539 34.7734 5.81015 33.5054 8.08845 32.2427C12.6444 29.7175 19.396 27.2658 28.1362 24.9221C45.6089 20.2368 70.9151 16.0121 102.213 12.4623C164.802 5.36356 251.281 0.97168 346.813 0.97168C442.344 0.97168 528.824 5.36356 591.413 12.4623C622.711 16.0121 648.017 20.2368 665.489 24.9221C674.23 27.2658 680.981 29.7175 685.537 32.2427C687.815 33.5054 689.52 34.7734 690.65 36.0353C691.777 37.2942 692.309 38.5191 692.309 39.7141Z" stroke="black"/>
</svg>
