<svg width="382" height="26" viewBox="0 0 382 26" fill="none" xmlns="http://www.w3.org/2000/svg">
<path d="M380.778 13.173C380.778 13.2161 380.735 13.458 380.129 13.8594C379.561 14.236 378.666 14.6361 377.42 15.0458C374.937 15.8619 371.238 16.66 366.425 17.4256C356.809 18.9549 342.873 20.3353 325.627 21.4955C291.141 23.8154 243.487 25.251 190.842 25.251C138.197 25.251 90.5434 23.8154 56.0576 21.4955C38.8114 20.3353 24.8753 18.9549 15.2596 17.4256C10.4463 16.66 6.74724 15.8619 4.26502 15.0458C3.01873 14.6361 2.124 14.236 1.55541 13.8594C0.949475 13.458 0.906738 13.2161 0.906738 13.173C0.906738 13.13 0.949475 12.8881 1.55541 12.4867C2.124 12.1101 3.01873 11.71 4.26502 11.3002C6.74724 10.4842 10.4463 9.68607 15.2596 8.92051C24.8753 7.39113 38.8114 6.01082 56.0576 4.85062C90.5434 2.53066 138.197 1.09509 190.842 1.09509C243.487 1.09509 291.141 2.53066 325.627 4.85062C342.873 6.01082 356.809 7.39113 366.425 8.92051C371.238 9.68607 374.937 10.4842 377.42 11.3002C378.666 11.71 379.561 12.1101 380.129 12.4867C380.735 12.8881 380.778 13.13 380.778 13.173Z" stroke="#F5EDE3" stroke-width="1.5"/>
</svg>
