<svg width="270" height="274" viewBox="0 0 270 274" fill="none" xmlns="http://www.w3.org/2000/svg">
<path d="M120.088 138.099C109.267 157.312 102.002 175.576 98.9943 189.568C97.49 196.567 97.0569 202.471 97.7598 206.881C98.4649 211.306 100.293 214.124 103.19 215.143C106.086 216.163 109.959 215.351 114.59 212.804C119.207 210.266 124.467 206.061 130.04 200.494C141.182 189.365 153.491 172.875 164.312 153.663C175.133 134.451 182.398 116.186 185.406 102.194C186.91 95.1949 187.343 89.2912 186.64 84.8809C185.935 80.4566 184.107 77.6386 181.21 76.6191C178.314 75.5997 174.441 76.4116 169.81 78.9579C165.193 81.4962 159.933 85.7011 154.36 91.2682C143.218 102.398 130.909 118.887 120.088 138.099Z" stroke="black" stroke-width="0.952334"/>
<path d="M105.061 119.66C94.2407 138.872 86.9754 157.137 83.968 171.129C82.4636 178.128 82.0305 184.032 82.7334 188.442C83.4385 192.866 85.2666 195.684 88.1634 196.704C91.0601 197.723 94.9327 196.911 99.5638 194.365C104.18 191.827 109.441 187.622 115.014 182.055C126.156 170.925 138.465 154.436 149.286 135.223C160.107 116.011 167.372 97.7465 170.379 83.7545C171.884 76.7555 172.317 70.8517 171.614 66.4414C170.909 62.0171 169.081 59.1991 166.184 58.1797C163.287 57.1603 159.415 57.9721 154.784 60.5184C150.167 63.0567 144.907 67.2617 139.333 72.8287C128.192 83.9581 115.882 100.448 105.061 119.66Z" stroke="black" stroke-width="0.952334"/>
<path d="M112.875 129.249C102.055 148.461 94.7893 166.726 91.7819 180.718C90.2776 187.717 89.8445 193.62 90.5474 198.031C91.2525 202.455 93.0806 205.273 95.9773 206.292C98.8741 207.312 102.747 206.5 107.378 203.954C111.994 201.415 117.255 197.21 122.828 191.643C133.97 180.514 146.279 164.024 157.1 144.812C167.921 125.6 175.186 107.335 178.193 93.3431C179.698 86.3441 180.131 80.4404 179.428 76.03C178.723 71.6058 176.895 68.7877 173.998 67.7683C171.101 66.7489 167.229 67.5607 162.598 70.107C157.981 72.6453 152.721 76.8503 147.147 82.4173C136.006 93.5467 123.696 110.036 112.875 129.249Z" stroke="black" stroke-width="0.952334"/>
<path d="M139.318 108.966C118.28 102.345 98.6305 99.5026 83.8762 100.246C76.497 100.617 70.3682 101.885 65.9063 104.004C61.4422 106.125 58.7034 109.07 57.9724 112.765C57.2413 116.461 58.5624 120.683 61.7133 125.2C64.8627 129.715 69.8011 134.465 76.177 139.165C88.9252 148.563 107.33 157.695 128.369 164.316C149.407 170.936 169.056 173.779 183.811 173.036C191.19 172.664 197.319 171.397 201.781 169.277C206.245 167.156 208.984 164.212 209.715 160.516C210.446 156.821 209.125 152.599 205.974 148.081C202.824 143.566 197.886 138.816 191.51 134.116C178.762 124.719 160.357 115.586 139.318 108.966Z" stroke="black" stroke-width="0.952334"/>
<path d="M140.434 121.093C119.402 114.448 99.763 111.584 85.0193 112.312C77.6453 112.677 71.5219 113.938 67.0652 116.055C62.6062 118.172 59.8723 121.115 59.1455 124.811C58.4188 128.508 59.7434 132.733 62.8969 137.256C66.0488 141.776 70.9889 146.533 77.3655 151.242C90.115 160.657 108.517 169.813 129.549 176.458C150.58 183.103 170.219 185.967 184.963 185.239C192.337 184.875 198.46 183.613 202.917 181.497C207.376 179.379 210.11 176.436 210.837 172.74C211.563 169.043 210.239 164.818 207.085 160.295C203.933 155.775 198.993 151.018 192.617 146.309C179.867 136.894 161.465 127.738 140.434 121.093Z" stroke="black" stroke-width="0.952334"/>
<path d="M140.425 97.7224C119.387 91.1019 99.7374 88.2594 84.9831 89.0024C77.6039 89.374 71.4751 90.6414 67.0133 92.7613C62.5491 94.8823 59.8103 97.8267 59.0793 101.522C58.3482 105.218 59.6694 109.44 62.8203 113.957C65.9696 118.472 70.908 123.222 77.2839 127.922C90.0322 137.32 108.437 146.452 129.476 153.073C150.514 159.693 170.163 162.536 184.918 161.793C192.297 161.421 198.426 160.154 202.888 158.034C207.352 155.913 210.09 152.968 210.822 149.273C211.553 145.577 210.231 141.355 207.081 136.838C203.931 132.323 198.993 127.573 192.617 122.873C179.869 113.475 161.464 104.343 140.425 97.7224Z" stroke="black" stroke-width="0.952334"/>
<ellipse rx="2.30586" ry="2.3095" transform="matrix(-0.822625 0.568584 0.568584 0.822625 127.9 105.265)" fill="#15326C"/>
<ellipse rx="2.30586" ry="2.3095" transform="matrix(-0.822625 0.568584 0.568584 0.822625 130.584 184.061)" fill="#15326C"/>
<ellipse rx="2.30586" ry="2.3095" transform="matrix(-0.822625 0.568584 0.568584 0.822625 62.4832 95.7815)" fill="#15326C"/>
</svg>
