<svg width="73" height="62" viewBox="0 0 73 62" fill="none" xmlns="http://www.w3.org/2000/svg">
<path d="M31.3738 56.0285C44.9798 57.8162 57.4389 48.0984 59.2019 34.3233C60.965 20.5482 51.3644 7.93209 37.7584 6.14439C24.1524 4.35669 11.6933 14.0744 9.93028 27.8495C8.16724 41.6246 17.7678 54.2408 31.3738 56.0285Z" stroke="white" stroke-width="0.754912" stroke-miterlimit="10"/>
<path d="M57.3176 41.2134C60.2335 47.2938 60.948 52.1006 58.7606 54.1201C54.5142 58.044 40.9344 49.9739 28.4277 36.104C15.921 22.2342 9.22498 7.8029 13.4714 3.879C15.7701 1.75575 20.8044 3.14444 26.9191 7.06426" stroke="white" stroke-width="0.754912" stroke-miterlimit="10"/>
<path d="M59.1231 35.6599C61.6557 40.9413 62.2765 45.1146 60.377 46.8686C56.69 50.2764 44.896 43.2719 34.035 31.2237C23.1739 19.1755 17.3604 6.64615 21.0485 3.23856C23.0441 1.39458 27.4147 2.60023 32.7224 6.00362" stroke="white" stroke-width="0.754912" stroke-miterlimit="10"/>
<path d="M20.8292 10.1475C15.1339 6.78786 10.527 5.72365 8.36296 7.75186C4.06757 11.7799 11.039 26.4696 23.9325 40.563C36.8261 54.6563 50.7605 62.8182 55.0559 58.7902C57.12 56.8548 56.5815 52.4567 54.0353 46.8465" stroke="white" stroke-width="0.754912" stroke-miterlimit="10"/>
<path d="M59.2463 34.2554C66.6859 31.1209 71.1673 27.7714 70.6383 25.1786C69.7068 20.6139 53.608 20.1223 34.682 24.0725C15.7561 28.0227 1.1622 34.9324 2.09259 39.4969C2.54654 41.7191 6.59635 42.9773 12.8167 43.2263" stroke="white" stroke-width="0.754912" stroke-miterlimit="10"/>
<path d="M58.2613 23.5543C60.86 21.8888 62.2307 20.2728 61.9524 18.9057C61.1669 15.0535 47.5833 14.6353 31.6125 17.9727C15.6416 21.3101 3.33356 27.1368 4.11918 30.9879C4.41493 32.4361 6.51903 33.3993 9.8769 33.8596" stroke="white" stroke-width="0.754912" stroke-miterlimit="10"/>
<path d="M58.6845 37.1289C63.0145 34.9367 65.4687 32.7213 65.1044 30.9384C64.8093 29.4937 62.7151 28.532 59.3695 28.071" stroke="white" stroke-width="0.754912" stroke-miterlimit="10"/>
<path d="M59.3697 28.0759C53.7951 27.3057 44.7466 27.9233 34.7654 30.0081C18.7965 33.3429 6.48703 39.1692 7.27394 43.0216C7.61792 44.6859 10.3404 45.7079 14.6158 46.0649" stroke="white" stroke-width="0.754912" stroke-miterlimit="10"/>
<path d="M56.7183 42.5017C60.0087 40.7399 61.8451 38.9393 61.5605 37.4125C60.9074 33.9092 49.3331 33.1766 35.7096 35.7771C22.086 38.3777 11.5645 43.3239 12.2176 46.8272C12.48 48.2575 14.5732 49.2271 17.8811 49.6955" stroke="white" stroke-width="0.754912" stroke-miterlimit="10"/>
<ellipse cx="13.3692" cy="4.10892" rx="1.20053" ry="1.20145" fill="white"/>
<ellipse cx="41.9132" cy="16.2125" rx="1.20031" ry="1.20124" fill="white"/>
<ellipse cx="41.2003" cy="48.2029" rx="1.20031" ry="1.20124" fill="white"/>
<ellipse cx="17.3437" cy="41.5948" rx="1.20031" ry="1.20124" fill="white"/>
</svg>
