<svg width="307" height="28" viewBox="0 0 307 28" fill="none" xmlns="http://www.w3.org/2000/svg">
<path d="M305.986 13.8729C305.986 14.1477 305.833 14.4938 305.363 14.911C304.896 15.326 304.171 15.7585 303.173 16.1985C301.18 17.0767 298.211 17.9354 294.347 18.7593C286.626 20.4052 275.436 21.891 261.586 23.1399C233.891 25.6373 195.621 27.1827 153.341 27.1827C111.061 27.1827 72.7906 25.6373 45.0959 23.1399C31.2458 21.891 20.0553 20.4052 12.335 18.7593C8.47083 17.9354 5.50171 17.0767 3.50885 16.1985C2.5105 15.7585 1.78588 15.326 1.31852 14.911C0.848652 14.4938 0.695862 14.1477 0.695862 13.8729C0.695862 13.5981 0.848652 13.252 1.31852 12.8348C1.78588 12.4198 2.5105 11.9872 3.50885 11.5472C5.50171 10.669 8.47083 9.81028 12.335 8.98645C20.0553 7.3405 31.2458 5.85472 45.0959 4.60579C72.7906 2.10842 111.061 0.562988 153.341 0.562988C195.621 0.562988 233.891 2.10842 261.586 4.60579C275.436 5.85472 286.626 7.3405 294.347 8.98645C298.211 9.81028 301.18 10.669 303.173 11.5472C304.171 11.9872 304.896 12.4198 305.363 12.8348C305.833 13.252 305.986 13.5981 305.986 13.8729Z" stroke="black"/>
</svg>
