<svg width="158" height="71" viewBox="0 0 158 71" fill="none" xmlns="http://www.w3.org/2000/svg">
<path d="M157.015 7.4943C157.349 7.25024 157.423 6.78109 157.179 6.44641L153.202 0.992464C152.958 0.657783 152.489 0.584314 152.154 0.828366C151.819 1.07242 151.746 1.54157 151.99 1.87626L155.525 6.7242L150.677 10.2594C150.342 10.5034 150.269 10.9726 150.513 11.3073C150.757 11.6419 151.226 11.7154 151.561 11.4714L157.015 7.4943ZM2.04673 70.4689C14.2341 43.4951 62.2052 -7.13042 156.457 7.62927L156.689 6.14733C61.7326 -8.72272 13.1289 42.2982 0.679782 69.8513L2.04673 70.4689Z" fill="black"/>
</svg>
