<svg width="546" height="119" viewBox="0 0 546 119" fill="none" xmlns="http://www.w3.org/2000/svg">
<path d="M545.518 59.4226C545.518 63.3345 543.687 67.1992 540.106 70.9834C536.522 74.7699 531.213 78.4455 524.334 81.9619C510.577 88.994 490.639 95.3408 465.962 100.676C416.616 111.345 348.422 117.948 273.081 117.948C197.74 117.948 129.546 111.345 80.2001 100.676C55.5231 95.3408 35.5854 88.994 21.8288 81.9619C14.9498 78.4455 9.64053 74.7699 6.05686 70.9834C2.47528 67.1992 0.644014 63.3345 0.644014 59.4226C0.644014 55.5106 2.47528 51.646 6.05686 47.8618C9.64053 44.0753 14.9498 40.3997 21.8288 36.8833C35.5854 29.8512 55.5231 23.5044 80.2001 18.169C129.546 7.49988 197.74 0.896943 273.081 0.896943C348.422 0.896943 416.616 7.49988 465.962 18.169C490.639 23.5044 510.577 29.8512 524.334 36.8833C531.213 40.3997 536.522 44.0753 540.106 47.8618C543.687 51.646 545.518 55.5106 545.518 59.4226Z" stroke="black" stroke-width="0.963809"/>
</svg>
