<svg width="48" height="45" viewBox="0 0 48 45" fill="none" xmlns="http://www.w3.org/2000/svg">
<path d="M18.6204 17.9571C13.6922 20.9074 9.69645 24.0992 7.2179 26.868C5.97739 28.2538 5.12802 29.5214 4.72525 30.5903C4.31942 31.6672 4.38764 32.481 4.8587 33.0246C5.32976 33.5682 6.23667 33.8799 7.59418 33.9012C8.94142 33.9224 10.657 33.6545 12.6314 33.1156C16.5763 32.039 21.4845 29.9003 26.4127 26.95C31.341 23.9997 35.3367 20.8079 37.8153 18.0391C39.0558 16.6533 39.9052 15.3856 40.3079 14.3168C40.7137 13.2398 40.6455 12.4261 40.1745 11.8825C39.7034 11.3388 38.7965 11.0272 37.439 11.0058C36.0918 10.9847 34.3761 11.2526 32.4017 11.7914C28.4569 12.868 23.5487 15.0067 18.6204 17.9571Z" stroke="black" stroke-width="0.587003"/>
<path d="M22.0091 20.4281C17.0945 23.4012 13.1136 26.6114 10.6479 29.3917C9.4138 30.7832 8.5703 32.0548 8.17249 33.1254C7.77164 34.2043 7.84363 35.0177 8.31719 35.5592C8.79076 36.1006 9.69911 36.4081 11.0567 36.4231C12.404 36.4381 14.1184 36.1622 16.0903 35.6142C20.0301 34.5194 24.9284 32.358 29.8429 29.3849C34.7574 26.4118 38.7384 23.2016 41.2041 20.4214C42.4382 19.0298 43.2817 17.7583 43.6795 16.6876C44.0804 15.6088 44.0084 14.7954 43.5348 14.2539C43.0612 13.7124 42.1529 13.405 40.7953 13.3899C39.448 13.375 37.7336 13.6508 35.7617 14.1988C31.8219 15.2937 26.9236 17.455 22.0091 20.4281Z" stroke="black" stroke-width="0.587003"/>
<path d="M18.2121 24.0611C18.3802 29.8026 19.2143 34.8481 20.4202 38.3631C21.0238 40.1224 21.7152 41.4826 22.4513 42.356C23.1929 43.2361 23.9364 43.5739 24.6408 43.4283C25.3452 43.2827 26.0601 42.6435 26.7416 41.4693C27.418 40.3039 28.0219 38.6759 28.5159 36.6898C29.5027 32.7216 30.0331 27.394 29.8651 21.6526C29.697 15.9111 28.8629 10.8656 27.6569 7.35058C27.0534 5.59131 26.3619 4.23108 25.6259 3.35767C24.8842 2.4776 24.1408 2.13977 23.4363 2.28537C22.7319 2.43097 22.0171 3.07022 21.3355 4.24445C20.6592 5.40979 20.0552 7.03779 19.5613 9.0239C18.5744 12.9921 18.044 18.3197 18.2121 24.0611Z" stroke="black" stroke-width="0.587003"/>
</svg>
