<svg width="45" height="45" viewBox="0 0 45 45" fill="none" xmlns="http://www.w3.org/2000/svg">
<path d="M18.3481 19.7124C13.4199 22.6628 9.42411 25.8545 6.94556 28.6234C5.70505 30.0092 4.85568 31.2768 4.45292 32.3456C4.04709 33.4226 4.11531 34.2363 4.58636 34.78C5.05742 35.3236 5.96434 35.6353 7.32184 35.6566C8.66908 35.6778 10.3847 35.4099 12.3591 34.871C16.3039 33.7944 21.2122 31.6557 26.1404 28.7054C31.0686 25.755 35.0644 22.5633 37.5429 19.7945C38.7834 18.4087 39.6328 17.141 40.0356 16.0722C40.4414 14.9952 40.3732 14.1815 39.9021 13.6378C39.4311 13.0942 38.5242 12.7825 37.1667 12.7612C35.8194 12.74 34.1038 13.008 32.1294 13.5468C28.1846 14.6234 23.2763 16.7621 18.3481 19.7124Z" stroke="black" stroke-width="0.587003"/>
<path d="M20.5921 30.1761C25.7492 32.7052 30.6014 34.3206 34.2731 34.8932C36.1108 35.1799 37.6366 35.2026 38.7524 34.9589C39.8768 34.7133 40.5224 34.2132 40.7222 33.5222C40.9219 32.8312 40.6898 31.9007 39.969 30.7502C39.2536 29.6084 38.0952 28.3148 36.5687 26.9516C33.5188 24.2279 29.0535 21.2739 23.8964 18.7448C18.7393 16.2157 13.8871 14.6003 10.2154 14.0276C8.37769 13.741 6.85197 13.7182 5.73608 13.962C4.61169 14.2076 3.96611 14.7076 3.76636 15.3987C3.56661 16.0897 3.79868 17.0202 4.51951 18.1707C5.23489 19.3125 6.39328 20.606 7.91978 21.9693C10.9697 24.693 15.435 27.647 20.5921 30.1761Z" stroke="black" stroke-width="0.587003"/>
<path d="M15.6855 23.8886C15.6839 29.6325 16.3687 34.7005 17.4703 38.2496C18.0216 40.0259 18.6726 41.406 19.3825 42.3007C20.0979 43.2023 20.831 43.562 21.5394 43.4372C22.2479 43.3125 22.9813 42.6946 23.6972 41.541C24.4077 40.3962 25.0594 38.7867 25.6118 36.8161C26.7154 32.8787 27.4029 27.5691 27.4045 21.8252C27.406 16.0813 26.7213 11.0134 25.6197 7.46428C25.0684 5.68795 24.4174 4.30789 23.7074 3.41312C22.9921 2.51154 22.259 2.1519 21.5505 2.27663C20.8421 2.40137 20.1087 3.01923 19.3928 4.17281C18.6823 5.31768 18.0305 6.92713 17.4782 8.89779C16.3746 12.8352 15.687 18.1448 15.6855 23.8886Z" stroke="black" stroke-width="0.587003"/>
</svg>
