<svg width="48" height="38" viewBox="0 0 48 38" fill="none" xmlns="http://www.w3.org/2000/svg">
<path d="M46.83 27.9468C46.83 29.1115 46.2239 30.2484 45.0691 31.3102C43.9139 32.3722 42.2287 33.3401 40.1251 34.1581C35.9196 35.7935 30.0927 36.8104 23.644 36.8104C17.1953 36.8104 11.3684 35.7935 7.16287 34.1581C5.05931 33.3401 3.37405 32.3722 2.21894 31.3102C1.06405 30.2484 0.458023 29.1115 0.458023 27.9468C0.458023 26.7821 1.06405 25.6452 2.21894 24.5834C3.37405 23.5214 5.05931 22.5536 7.16287 21.7356C11.3684 20.1001 17.1953 19.0833 23.644 19.0833C30.0927 19.0833 35.9196 20.1001 40.1251 21.7356C42.2287 22.5536 43.9139 23.5214 45.0691 24.5834C46.2239 25.6452 46.83 26.7821 46.83 27.9468Z" stroke="black" stroke-width="0.5"/>
<path d="M46.83 18.8333C46.83 19.998 46.2239 21.1349 45.0691 22.1967C43.9139 23.2587 42.2287 24.2265 40.1251 25.0445C35.9196 26.6799 30.0927 27.6968 23.644 27.6968C17.1953 27.6968 11.3684 26.6799 7.16287 25.0445C5.05931 24.2265 3.37405 23.2587 2.21894 22.1967C1.06405 21.1349 0.458023 19.998 0.458023 18.8333C0.458023 17.6686 1.06405 16.5317 2.21894 15.4699C3.37405 14.4079 5.05931 13.44 7.16287 12.622C11.3684 10.9866 17.1953 9.96973 23.644 9.96973C30.0927 9.96973 35.9196 10.9866 40.1251 12.622C42.2287 13.44 43.9139 14.4079 45.0691 15.4699C46.2239 16.5317 46.83 17.6686 46.83 18.8333Z" stroke="black" stroke-width="0.5"/>
<path d="M46.83 9.71976C46.83 10.8845 46.2239 12.0213 45.0691 13.0831C43.9139 14.1451 42.2287 15.113 40.1251 15.931C35.9196 17.5664 30.0927 18.5833 23.644 18.5833C17.1953 18.5833 11.3684 17.5664 7.16287 15.931C5.05931 15.113 3.37405 14.1451 2.21894 13.0831C1.06405 12.0213 0.458023 10.8845 0.458023 9.71976C0.458023 8.55504 1.06405 7.41819 2.21894 6.35639C3.37405 5.29439 5.05931 4.32652 7.16287 3.5085C11.3684 1.8731 17.1953 0.856201 23.644 0.856201C30.0927 0.856201 35.9196 1.8731 40.1251 3.5085C42.2287 4.32652 43.9139 5.29439 45.0691 6.35639C46.2239 7.41819 46.83 8.55504 46.83 9.71976Z" stroke="black" stroke-width="0.5"/>
</svg>
