<svg width="41" height="38" viewBox="0 0 41 38" fill="none" xmlns="http://www.w3.org/2000/svg">
<path d="M24.6925 18.8333C24.6925 23.8246 23.3581 28.332 21.214 31.5842C19.0684 34.8383 16.1327 36.8104 12.925 36.8104C9.71742 36.8104 6.78166 34.8383 4.63614 31.5842C2.49195 28.332 1.15759 23.8246 1.15759 18.8333C1.15759 13.8419 2.49195 9.33453 4.63614 6.0824C6.78166 2.82826 9.71742 0.856201 12.925 0.856201C16.1327 0.856201 19.0684 2.82826 21.214 6.0824C23.3581 9.33453 24.6925 13.8419 24.6925 18.8333Z" stroke="black" stroke-width="0.5"/>
<path d="M31.7427 18.8333C31.7427 23.8246 30.4084 28.332 28.2642 31.5842C26.1187 34.8383 23.1829 36.8104 19.9753 36.8104C16.7677 36.8104 13.8319 34.8383 11.6864 31.5842C9.54218 28.332 8.20782 23.8246 8.20782 18.8333C8.20782 13.8419 9.54218 9.33453 11.6864 6.0824C13.8319 2.82826 16.7677 0.856201 19.9753 0.856201C23.1829 0.856201 26.1187 2.82826 28.2642 6.0824C30.4084 9.33453 31.7427 13.8419 31.7427 18.8333Z" stroke="black" stroke-width="0.5"/>
<path d="M40.3953 18.8333C40.3953 23.8246 39.061 28.332 36.9168 31.5842C34.7713 34.8383 31.8355 36.8104 28.6279 36.8104C25.4202 36.8104 22.4845 34.8383 20.339 31.5842C18.1948 28.332 16.8604 23.8246 16.8604 18.8333C16.8604 13.8419 18.1948 9.33453 20.339 6.0824C22.4845 2.82826 25.4202 0.856201 28.6279 0.856201C31.8355 0.856201 34.7713 2.82826 36.9168 6.0824C39.061 9.33453 40.3953 13.8419 40.3953 18.8333Z" stroke="black" stroke-width="0.5"/>
</svg>
