<svg width="81" height="80" viewBox="0 0 81 80" fill="none" xmlns="http://www.w3.org/2000/svg">
<path d="M35.7495 41.4683C33.8189 47.715 32.8823 53.5193 32.9225 57.8497C32.9426 60.0167 33.2072 61.7978 33.7025 63.0774C34.2002 64.3632 34.9075 65.0882 35.7739 65.2599C36.6403 65.4316 37.6882 65.0545 38.8774 64.103C40.0609 63.1561 41.3324 61.6794 42.6123 59.7701C45.1701 55.9546 47.7224 50.4706 49.653 44.2239C51.5837 37.9771 52.5202 32.1729 52.4801 27.8425C52.46 25.6755 52.1954 23.8944 51.7 22.6148C51.2023 21.329 50.495 20.604 49.6286 20.4323C48.7622 20.2606 47.7143 20.6377 46.5251 21.5892C45.3416 22.5361 44.0701 24.0128 42.7902 25.9221C40.2324 29.7376 37.6801 35.2216 35.7495 41.4683Z" stroke="black" stroke-width="0.587003"/>
<path d="M31.1565 36.4846C29.2258 42.7313 28.2893 48.5355 28.3295 52.8659C28.3495 55.0329 28.6141 56.814 29.1095 58.0937C29.6072 59.3794 30.3145 60.1044 31.1809 60.2761C32.0473 60.4478 33.0952 60.0707 34.2844 59.1193C35.4679 58.1724 36.7394 56.6957 38.0193 54.7863C40.5771 50.9708 43.1294 45.4868 45.06 39.2401C46.9907 32.9934 47.9272 27.1892 47.887 22.8587C47.8669 20.6918 47.6024 18.9106 47.107 17.631C46.6093 16.3452 45.902 15.6203 45.0356 15.4485C44.1692 15.2768 43.1213 15.654 41.9321 16.6054C40.7486 17.5523 39.4771 19.029 38.1972 20.9383C35.6394 24.7539 33.0871 30.2379 31.1565 36.4846Z" stroke="black" stroke-width="0.587003"/>
<path d="M39.5102 31.9091C32.8013 31.345 26.8434 31.8105 22.6358 33.0104C20.5308 33.6106 18.8788 34.3905 17.7888 35.3046C16.6974 36.2198 16.1981 37.243 16.3131 38.3287C16.4281 39.4144 17.1551 40.5407 18.4618 41.6576C19.7667 42.773 21.615 43.8472 23.8862 44.8154C28.4259 46.7507 34.5904 48.2354 41.2993 48.7995C48.0081 49.3636 53.966 48.8981 58.1737 47.6983C60.2787 47.098 61.9306 46.3181 63.0206 45.404C64.112 44.4888 64.6113 43.4657 64.4963 42.3799C64.3813 41.2942 63.6543 40.1679 62.3477 39.051C61.0427 37.9356 59.1944 36.8614 56.9233 35.8932C52.3836 33.9579 46.2191 32.4732 39.5102 31.9091Z" stroke="black" stroke-width="0.587002"/>
</svg>
