<svg width="184" height="144" viewBox="0 0 184 144" fill="none" xmlns="http://www.w3.org/2000/svg">
<path d="M168.654 91.1723C164.807 100.396 153.826 105.693 139.05 106.716C124.29 107.737 105.826 104.484 87.1633 96.7019C68.5006 88.9194 53.1957 78.0903 43.5349 66.8849C33.8632 55.6668 29.8983 44.1377 33.7448 34.9136C37.5914 25.6896 48.5727 20.3932 63.349 19.3703C78.1088 18.3485 96.5729 21.6015 115.236 29.384C133.898 37.1666 149.203 47.9956 158.864 59.2011C168.536 70.4191 172.501 81.9483 168.654 91.1723Z" stroke="black" stroke-width="0.5"/>
<path d="M158.252 100.308C154.405 109.532 143.424 114.828 128.647 115.851C113.888 116.873 95.4236 113.62 76.7609 105.838C58.0982 98.0551 42.7934 87.2261 33.1326 76.0206C23.4609 64.8026 19.496 53.2734 23.3425 44.0494C27.189 34.8253 38.1704 29.529 52.9467 28.506C67.7064 27.4842 86.1706 30.7372 104.833 38.5198C123.496 46.3023 138.801 57.1314 148.462 68.3368C158.133 79.5549 162.098 91.084 158.252 100.308Z" stroke="black" stroke-width="0.5"/>
<path d="M149.929 109.814C146.082 119.038 135.101 124.335 120.325 125.358C105.565 126.38 87.1009 123.127 68.4382 115.344C49.7755 107.561 34.4706 96.7324 24.8098 85.527C15.1381 74.3089 11.1732 62.7798 15.0197 53.5557C18.8663 44.3317 29.8476 39.0353 44.6239 38.0124C59.3837 36.9906 77.8478 40.2436 96.5105 48.0261C115.173 55.8087 130.478 66.6377 140.139 77.8432C149.811 89.0612 153.775 100.59 149.929 109.814Z" stroke="black" stroke-width="0.5"/>
</svg>
