<svg width="157" height="209" viewBox="0 0 157 209" fill="none" xmlns="http://www.w3.org/2000/svg">
<g clip-path="url(#clip0_144_567)">
<path d="M110.518 96.3501C114.058 97.6816 116.103 99.2576 116.103 100.943C116.103 105.739 99.5761 109.624 79.1894 109.624C58.8027 109.624 42.2759 105.739 42.2759 100.935C42.2759 98.2884 45.8661 96.3135 53.7938 94.7207" stroke="#221F20" stroke-width="0.424196" stroke-miterlimit="10"/>
<path d="M62.7192 93.1724C68.1874 92.5523 73.6867 92.2484 79.1899 92.2622C92.3933 92.2622 103.998 93.8943 110.519 96.3496" stroke="#221F20" stroke-width="0.424196" stroke-miterlimit="10"/>
<path d="M79.9932 109.68C61.0167 109.68 44.2708 107.022 42.2173 101.061C42.2153 101.054 42.2114 101.049 42.2061 101.045C42.2008 101.041 42.1943 101.039 42.1878 101.039C42.1812 101.039 42.1748 101.041 42.1694 101.045C42.1641 101.049 42.1602 101.054 42.1583 101.061L42.0684 185.31C42.0676 185.946 42.1923 186.576 42.4353 187.164C42.6782 187.751 43.0347 188.286 43.4842 188.735C43.9338 189.185 44.4677 189.542 45.0553 189.785C45.6429 190.029 46.2727 190.154 46.9087 190.153H111.471C112.118 190.154 112.758 190.026 113.356 189.779C113.954 189.531 114.497 189.168 114.954 188.711C115.411 188.253 115.773 187.709 116.02 187.111C116.267 186.514 116.394 185.873 116.393 185.226L116.233 101.319C116.234 101.307 116.231 101.295 116.224 101.285C116.217 101.276 116.207 101.269 116.195 101.267C116.183 101.265 116.171 101.268 116.161 101.275C116.151 101.283 116.144 101.293 116.143 101.305C114.103 106.679 98.8545 109.68 79.9932 109.68Z" fill="#221F20"/>
<path d="M80.2573 117.883C74.9759 99.1507 81.8558 81.9244 96.1689 69.8643" stroke="#221F20" stroke-width="0.842774" stroke-linecap="round" stroke-linejoin="round"/>
<path d="M76.0324 126.094C74.6839 115.349 74.4957 104.404 75.0856 93.6195C75.3134 90.1642 75.8217 86.7331 76.6054 83.3601C78.1842 76.1769 80.4822 69.0751 81.2772 61.7963C81.7295 57.6639 81.3053 51.065 74.816 50.3599" stroke="#221F20" stroke-width="0.842774" stroke-linecap="round" stroke-linejoin="round"/>
<path d="M58.7412 96.6841L74.6753 108.154" stroke="#221F20" stroke-width="0.842774" stroke-linecap="round" stroke-linejoin="round"/>
<path d="M135.183 32.5912L133.262 32.5154C132.915 32.4984 132.573 32.6085 132.301 32.8251C132.029 33.0418 131.845 33.3501 131.784 33.6925C131.281 36.6394 130.18 40.1818 128.655 40.9291C128.374 41.0583 127.194 41.6426 126.126 41.151C124.902 40.5892 124.25 38.044 124.067 35.4876C124.025 34.8047 123.734 34.1609 123.249 33.6787C122.764 33.1965 122.118 32.9095 121.435 32.8722C119.592 32.7795 117.741 32.7008 115.892 32.6418C115.226 32.6226 114.575 32.8445 114.059 33.2666C113.543 33.6887 113.196 34.2828 113.083 34.9398C112.662 37.3838 112.364 40.0245 112.285 40.3504C111.473 43.7411 107.768 49.5759 104.88 45.0193C103.815 43.3338 103.812 40.3251 104.195 37.3023C104.25 36.8994 104.214 36.4891 104.088 36.1021C103.963 35.7152 103.752 35.3615 103.471 35.0676C103.19 34.7737 102.846 34.5471 102.464 34.4049C102.083 34.2626 101.675 34.2082 101.27 34.2459C91.0697 35.3949 85.9148 42.3225 83.8528 49.5479C81.7149 57.0289 85.6058 71.0021 92.126 69.1115C94.9971 68.2687 95.4325 69.4991 95.9635 69.044C102.119 63.7823 109.057 58.4251 119.539 53.1915C131.868 47.0336 133.619 45.9099 135.27 46.924C136.082 47.4269 132.02 47.3117 113.898 57.7481C107.436 61.4731 101.537 66.4932 97.1546 70.2043C96.3905 70.8476 97.4889 72.0134 96.2893 75.3171C95.2555 78.1685 99.2306 83.1409 101.253 85.4304C106.31 91.1219 114.224 91.9591 120.918 88.8296L121.337 88.6329C123.722 87.5092 123.736 85.6692 121.365 84.5286C116.67 82.2812 109.743 79.104 109.954 78.2977C110.164 77.4915 111.383 77.1234 111.836 76.9942C114.122 76.3453 119.519 78.7865 124.261 81.3317C124.828 81.6327 125.449 81.8187 126.089 81.8789C126.728 81.9392 127.373 81.8725 127.986 81.6827C128.6 81.4929 129.17 81.1838 129.663 80.7731C130.157 80.3623 130.565 79.8581 130.863 79.2894C132.212 76.7386 133.113 73.9755 133.529 71.1201C133.588 70.724 133.658 70.3279 133.737 69.9346C133.782 69.6898 133.764 69.4375 133.684 69.2018C133.604 68.9661 133.464 68.755 133.279 68.5889C131.678 67.1425 130.23 65.5356 128.958 63.7936C128.028 62.5125 126.593 57.7256 130.764 58.0486C132.498 58.1835 136.102 62.9817 138.63 64.3751C138.815 64.4798 139.021 64.5417 139.233 64.5563C139.445 64.5708 139.658 64.5377 139.855 64.4594C150.648 60.0825 155.151 42.7972 156.309 37.4175C156.351 37.22 156.352 37.0157 156.31 36.8181C156.267 36.6204 156.184 36.434 156.064 36.271C155.945 36.108 155.792 35.9722 155.617 35.8725C155.441 35.7728 155.246 35.7115 155.045 35.6926C148.395 35.0606 141.836 32.8272 135.183 32.5912Z" fill="#3361BB"/>
<path d="M9.51651 29.9852C9.89108 30.7062 10.2544 31.4329 10.6065 32.1652C10.7999 32.5622 11.1314 32.8751 11.5389 33.0452C11.9464 33.2154 12.4019 33.2311 12.8202 33.0894C16.4048 31.8477 21.0148 30.9038 22.779 32.1427C23.088 32.3618 24.4645 33.331 24.5628 34.8031C24.678 36.5139 22.2565 38.7894 19.5259 40.5564C18.7922 41.0204 18.2545 41.7376 18.0147 42.5718C17.7749 43.4061 17.8498 44.2994 18.2252 45.0821C19.2534 47.189 20.2956 49.296 21.3603 51.386C21.7454 52.1398 22.3899 52.7289 23.1752 53.0449C23.9604 53.3608 24.8334 53.3823 25.6332 53.1053C28.6082 52.0827 31.7292 50.7989 32.1366 50.6865C36.4038 49.5151 45.1574 50.0685 41.8594 56.0663C40.643 58.2743 37.2887 60.1228 33.7126 61.5443C31.6646 62.3562 30.8275 64.8676 32.1001 66.6656C39.6148 77.3042 50.4669 78.7987 59.7655 76.6805C69.3928 74.4865 82.5485 61.6145 76.4609 55.5213C73.7781 52.8356 74.8681 51.608 74.0393 51.3074C64.4233 47.6778 54.2257 43.2392 41.997 34.7862C27.6137 24.8415 25.2933 23.5857 25.4225 21.1389C25.4843 19.9309 27.844 24.51 50.5259 38.2753C58.625 43.1915 67.8 46.6581 74.6124 49.2763C75.7979 49.7286 76.4216 47.7958 80.8265 47.1104C84.6274 46.5148 87.7288 39.0534 89.0267 35.4127C92.2685 26.3191 88.3553 16.9952 80.7787 11.461L80.2731 11.1155C77.5762 9.149 75.4973 10.2727 75.6912 13.596C76.0508 20.195 76.7699 29.8335 75.7417 30.0919C74.7135 30.3504 73.5646 29.2211 73.1432 28.7969C71.0222 26.6506 70.4379 19.1555 70.3676 12.3263C70.3556 11.5117 70.1826 10.7076 69.8587 9.96017C69.5348 9.21272 69.0663 8.53668 68.4802 7.97093C67.8941 7.40518 67.2019 6.96088 66.4435 6.66359C65.685 6.36629 64.8753 6.22187 64.0609 6.23862C60.3996 6.29912 56.7758 6.98607 53.3464 8.26971C52.8716 8.44669 52.3885 8.60963 51.8996 8.76413C51.5999 8.86294 51.3307 9.03741 51.1181 9.27068C50.9055 9.50395 50.7567 9.78812 50.686 10.0957C50.0549 12.7596 49.1531 15.3519 47.9948 17.8324C47.138 19.65 42.6937 24.1729 40.5053 19.3353C39.5923 17.3239 42.7246 10.3823 42.7331 6.73586C42.7342 6.46825 42.6764 6.20367 42.5637 5.96092C42.4511 5.71816 42.2864 5.50318 42.0813 5.33123C30.6112 -3.99266 8.65126 1.56965 1.95121 3.57265C1.70538 3.64591 1.47791 3.77053 1.28384 3.93826C1.08977 4.106 0.933522 4.31303 0.825439 4.54566C0.717356 4.77829 0.659898 5.03122 0.656865 5.28772C0.653832 5.54421 0.705291 5.79843 0.807842 6.03355C4.18175 13.7815 5.70998 22.4424 9.51651 29.9852Z" fill="#3361BB"/>
<path d="M46.1358 88.8716C38.1575 83.3262 29.9152 80.8597 30.1877 80.2669C30.331 79.9523 32.4576 80.6602 33.1571 80.8934C42.3546 83.9611 56.5525 93.1529 62.6345 98.145C63.7582 96.0099 61.4771 92.7175 57.2211 88.6581C55.2069 89.1217 52.7263 88.8323 51.0408 87.5709C50.7598 87.3631 49.0743 86.0905 49.1305 84.3431C49.1687 83.74 49.3675 83.158 49.7064 82.6576C47.6753 81.2529 45.4672 79.8848 43.1159 78.5645C30.3141 71.3813 18.2119 68.6844 16.0853 72.5443C15.0262 74.4658 16.6471 77.6515 20.1165 81.2529C20.1668 80.7522 20.2608 80.2568 20.3975 79.7725C21.2234 76.9323 23.5073 75.7637 24.6282 77.1009C25.7912 78.4887 25.8109 82.7194 24.8248 85.4837C27.5143 87.6061 30.341 89.5487 33.2863 91.2988C34.1965 88.7312 36.3259 87.7198 37.3962 88.9952C38.1435 89.8886 38.416 91.9562 38.239 94.0519C48.5798 99.3698 57.9037 101.946 61.331 99.9316C58.2071 97.7629 53.718 94.139 46.1358 88.8716Z" fill="#3361BB"/>
<path d="M54.5358 165.21H63.7164C64.118 165.21 64.5032 165.37 64.7871 165.653C65.0711 165.937 65.2306 166.323 65.2306 166.724V188.636H52.957V166.789C52.957 166.37 53.1234 165.968 53.4194 165.672C53.7155 165.376 54.1171 165.21 54.5358 165.21Z" fill="white"/>
<path d="M74.7935 153.793H84.3449C84.5183 153.793 84.69 153.828 84.8502 153.894C85.0104 153.96 85.156 154.058 85.2786 154.18C85.4012 154.303 85.4984 154.448 85.5648 154.609C85.6311 154.769 85.6653 154.94 85.6653 155.114V188.642H73.3804V155.212C73.3786 155.026 73.4138 154.841 73.4841 154.668C73.5544 154.496 73.6583 154.339 73.7898 154.207C73.9213 154.075 74.0778 153.97 74.2501 153.899C74.4224 153.828 74.6071 153.792 74.7935 153.793Z" fill="white"/>
<path d="M95.4218 141.894H104.917C105.269 141.894 105.606 142.033 105.855 142.282C106.103 142.531 106.243 142.868 106.243 143.22V188.642H93.9722V143.354C93.9711 143.163 94.0077 142.974 94.0801 142.797C94.1524 142.62 94.2589 142.459 94.3936 142.323C94.5283 142.187 94.6884 142.079 94.8649 142.006C95.0413 141.932 95.2306 141.894 95.4218 141.894Z" fill="white"/>
<path d="M52.957 152.213C61.4631 150.932 75.588 147.238 85.287 135.415C86.1317 134.39 86.9047 133.342 87.6111 132.288" stroke="white" stroke-width="0.466335" stroke-linecap="round" stroke-linejoin="round"/>
<path d="M88.6412 136.346L87.8756 136.443L87.4187 132.524L83.6868 133.285L83.5386 132.499L88.083 131.573L88.6412 136.346Z" fill="white"/>
<path d="M110.145 163.409C129.661 175.208 141.004 188.594 137.566 197.963C132.624 211.447 99.0229 211.495 62.5111 198.103C25.9993 184.712 0.409912 162.94 5.35138 149.47C8.41908 141.109 25.9937 137.915 44.9843 139.896" stroke="#221F20" stroke-miterlimit="10"/>
<path d="M44.5405 181.577C21.3417 169.02 6.80667 153.414 10.6048 143.104C14.4843 132.525 36.0453 130.215 62.809 136.199" stroke="#221F20" stroke-miterlimit="10"/>
<path d="M107.203 153.052C132.36 165.924 146.763 180.807 142.802 191.6C137.863 205.085 94.924 204.478 63.3003 189.757" stroke="#221F20" stroke-miterlimit="10"/>
<path d="M97.0392 129.098C97.0392 129.591 97.1233 130.011 97.2915 130.36C97.4596 130.708 97.6939 130.996 97.9942 131.225C98.2945 131.441 98.6368 131.603 99.0212 131.711C99.4176 131.807 99.844 131.855 100.3 131.855C100.793 131.855 101.213 131.801 101.562 131.693C101.91 131.573 102.192 131.423 102.409 131.243C102.625 131.062 102.781 130.858 102.877 130.63C102.973 130.39 103.021 130.15 103.021 129.909C103.021 129.417 102.907 129.056 102.679 128.828C102.463 128.588 102.222 128.42 101.958 128.324C101.502 128.156 100.967 127.999 100.355 127.855C99.7539 127.699 99.0092 127.501 98.1203 127.261C97.5677 127.116 97.1053 126.93 96.7329 126.702C96.3725 126.462 96.0843 126.198 95.868 125.909C95.6518 125.621 95.4957 125.315 95.3996 124.99C95.3155 124.666 95.2735 124.336 95.2735 123.999C95.2735 123.351 95.4056 122.792 95.6699 122.324C95.9461 121.843 96.3065 121.447 96.7509 121.135C97.1954 120.822 97.6999 120.594 98.2644 120.45C98.829 120.294 99.3996 120.216 99.9761 120.216C100.649 120.216 101.279 120.306 101.868 120.486C102.469 120.654 102.991 120.912 103.436 121.261C103.892 121.609 104.252 122.041 104.517 122.558C104.781 123.062 104.913 123.651 104.913 124.324H102.661C102.601 123.495 102.318 122.912 101.814 122.576C101.309 122.228 100.667 122.053 99.886 122.053C99.6218 122.053 99.3515 122.083 99.0752 122.144C98.799 122.192 98.5467 122.282 98.3185 122.414C98.0903 122.534 97.8981 122.702 97.7419 122.918C97.5978 123.135 97.5257 123.405 97.5257 123.729C97.5257 124.186 97.6638 124.546 97.9401 124.81C98.2284 125.062 98.6008 125.255 99.0572 125.387C99.1053 125.399 99.2915 125.453 99.6158 125.549C99.9521 125.633 100.324 125.729 100.733 125.837C101.141 125.945 101.538 126.053 101.922 126.162C102.318 126.258 102.601 126.33 102.769 126.378C103.189 126.51 103.556 126.69 103.868 126.918C104.18 127.147 104.439 127.411 104.643 127.711C104.859 127.999 105.015 128.312 105.111 128.648C105.219 128.984 105.273 129.321 105.273 129.657C105.273 130.378 105.123 130.996 104.823 131.513C104.535 132.017 104.15 132.432 103.67 132.756C103.189 133.08 102.643 133.315 102.03 133.459C101.418 133.615 100.793 133.693 100.156 133.693C99.4236 133.693 98.7329 133.603 98.0843 133.423C97.4356 133.243 96.871 132.966 96.3906 132.594C95.9101 132.222 95.5257 131.747 95.2374 131.171C94.9491 130.582 94.799 129.891 94.787 129.098H97.0392Z" fill="white"/>
<path d="M100.261 134.797V118.925" stroke="white" stroke-width="1.3" stroke-miterlimit="10" stroke-linecap="round"/>
</g>
<defs>
<clipPath id="clip0_144_567">
<rect width="155.663" height="208.3" fill="white" transform="translate(0.668457 0.0825195)"/>
</clipPath>
</defs>
</svg>
