<svg width="108" height="90" viewBox="0 0 108 90" fill="none" xmlns="http://www.w3.org/2000/svg">
<path d="M46.1088 81.2314C66.1112 83.813 84.4274 69.7801 87.0193 49.8881C89.6112 29.9961 75.4972 11.7778 55.4948 9.19625C35.4925 6.61472 17.1762 20.6476 14.5843 40.5396C11.9925 60.4315 26.1064 78.6499 46.1088 81.2314Z" stroke="white" stroke-width="1.5" stroke-miterlimit="10"/>
<path d="M84.2492 59.8385C88.5359 68.619 89.5863 75.5605 86.3706 78.4768C80.1278 84.1432 60.164 72.4894 41.7778 52.4602C23.3915 32.4309 13.5476 11.5911 19.7903 5.92462C23.1696 2.85849 30.5706 4.86386 39.5599 10.5244" stroke="white" stroke-width="1.5" stroke-miterlimit="10"/>
<path d="M86.9036 51.819C90.6267 59.4457 91.5393 65.4722 88.7468 68.0052C83.3265 72.9262 65.9881 62.8112 50.0211 45.4128C34.054 28.0143 25.5075 9.92096 30.9294 5.00015C33.8633 2.3373 40.2885 4.07835 48.0914 8.9931" stroke="white" stroke-width="1.5" stroke-miterlimit="10"/>
<path d="M30.6071 14.9768C22.2344 10.1253 15.4616 8.58849 12.2803 11.5174C5.96557 17.3341 16.2144 38.547 35.1693 58.8987C54.1243 79.2505 74.6095 91.0367 80.9242 85.22C83.9587 82.4252 83.167 76.074 79.4238 67.9725" stroke="white" stroke-width="1.5" stroke-miterlimit="10"/>
<path d="M87.0846 49.7904C98.0217 45.2639 104.61 40.4269 103.832 36.6826C102.463 30.0907 78.7956 29.3808 50.9723 35.0853C23.149 40.7898 1.69438 50.7681 3.06216 57.3598C3.72952 60.5688 9.6832 62.3858 18.8278 62.7454" stroke="white" stroke-width="1.5" stroke-miterlimit="10"/>
<path d="M85.6367 34.3375C89.457 31.9324 91.472 29.5987 91.0629 27.6246C89.9081 22.0618 69.9388 21.4579 46.4598 26.2772C22.9808 31.0966 4.88661 39.5108 6.04156 45.072C6.47634 47.1634 9.56961 48.5542 14.5061 49.2189" stroke="white" stroke-width="1.5" stroke-miterlimit="10"/>
<path d="M86.2586 53.9407C92.6242 50.7748 96.232 47.5753 95.6965 45.0004C95.2627 42.914 92.184 41.5251 87.2656 40.8594" stroke="white" stroke-width="1.5" stroke-miterlimit="10"/>
<path d="M87.2657 40.8602C79.0704 39.7488 65.7677 40.642 51.0936 43.6539C27.6164 48.4719 9.51874 56.8872 10.6751 62.4502C11.1806 64.8536 15.1829 66.3291 21.4683 66.844" stroke="white" stroke-width="1.5" stroke-miterlimit="10"/>
<path d="M83.3683 61.6994C88.2055 59.1552 90.9052 56.5549 90.4869 54.3501C89.5268 49.2911 72.5112 48.2331 52.4831 51.9885C32.4549 55.7439 16.9871 62.8867 17.9471 67.9457C18.3329 70.0112 21.4102 71.4114 26.2731 72.0878" stroke="white" stroke-width="1.5" stroke-miterlimit="10"/>
<circle cx="19.1648" cy="17.6042" r="1.99629" fill="white"/>
<circle cx="49.7991" cy="25.7678" r="2.28047" fill="white"/>
<circle cx="27.4022" cy="41.8594" r="2.1997" fill="white"/>
<circle cx="29.4061" cy="74.8169" r="2.00389" fill="white"/>
</svg>
