<svg width="388" height="33" viewBox="0 0 388 33" fill="none" xmlns="http://www.w3.org/2000/svg">
<line x1="0.525635" y1="18.1113" x2="334.838" y2="18.1113" stroke="black" stroke-width="1.5"/>
<path d="M387.205 21.5957C387.205 22.8582 386.547 24.116 385.238 25.3158C383.929 26.5159 382.007 27.6197 379.59 28.557C374.759 30.4304 368.051 31.5998 360.616 31.5998C353.182 31.5998 346.474 30.4304 341.643 28.557C339.225 27.6197 337.304 26.5159 335.994 25.3158C334.686 24.116 334.028 22.8582 334.028 21.5957C334.028 20.3331 334.686 19.0754 335.994 17.8755C337.304 16.6754 339.225 15.5716 341.643 14.6343C346.474 12.761 353.182 11.5916 360.616 11.5916C368.051 11.5916 374.759 12.761 379.59 14.6343C382.007 15.5716 383.929 16.6754 385.238 17.8755C386.547 19.0754 387.205 20.3331 387.205 21.5957Z" stroke="black"/>
<path d="M387.205 16.1269C387.205 17.3895 386.547 18.6472 385.238 19.847C383.929 21.0472 382.007 22.151 379.59 23.0883C374.759 24.9616 368.051 26.131 360.616 26.131C353.182 26.131 346.474 24.9616 341.643 23.0883C339.225 22.151 337.304 21.0472 335.994 19.847C334.686 18.6472 334.028 17.3895 334.028 16.1269C334.028 14.8643 334.686 13.6066 335.994 12.4068C337.304 11.2066 339.225 10.1029 341.643 9.16556C346.474 7.29221 353.182 6.1228 360.616 6.1228C368.051 6.1228 374.759 7.29221 379.59 9.16556C382.007 10.1029 383.929 11.2066 385.238 12.4068C386.547 13.6066 387.205 14.8643 387.205 16.1269Z" stroke="black"/>
<path d="M387.205 11.0915C387.205 12.3541 386.547 13.6118 385.238 14.8116C383.929 16.0118 382.007 17.1156 379.59 18.0529C374.759 19.9262 368.051 21.0956 360.616 21.0956C353.182 21.0956 346.474 19.9262 341.643 18.0529C339.225 17.1156 337.304 16.0118 335.994 14.8116C334.686 13.6118 334.028 12.3541 334.028 11.0915C334.028 9.82894 334.686 8.57121 335.994 7.37139C337.304 6.17124 339.225 5.06746 341.643 4.13016C346.474 2.25681 353.182 1.0874 360.616 1.0874C368.051 1.0874 374.759 2.25681 379.59 4.13016C382.007 5.06746 383.929 6.17124 385.238 7.37139C386.547 8.57121 387.205 9.82894 387.205 11.0915Z" stroke="black"/>
</svg>
