<svg width="75" height="90" viewBox="0 0 75 90" fill="none" xmlns="http://www.w3.org/2000/svg">
<path d="M28.4624 35.8011C38.2073 35.8011 46.1071 27.9013 46.1071 18.1564C46.1071 8.41152 38.2073 0.511719 28.4624 0.511719C18.7175 0.511719 10.8177 8.41152 10.8177 18.1564C10.8177 27.9013 18.7175 35.8011 28.4624 35.8011Z" fill="#3361BB"/>
<path d="M28.4626 80.997C43.9051 80.997 56.4238 71.2146 56.4238 59.1474C56.4238 47.0802 43.9051 37.2979 28.4626 37.2979C13.0201 37.2979 0.501465 47.0802 0.501465 59.1474C0.501465 71.2146 13.0201 80.997 28.4626 80.997Z" fill="#3361BB"/>
<path fill-rule="evenodd" clip-rule="evenodd" d="M60.3513 60.0581C67.2591 59.5134 72.4174 53.472 71.8727 46.5642C71.328 39.6564 65.2865 34.4981 58.3787 35.0428C51.471 35.5875 46.3127 41.6289 46.8574 48.5367C47.4021 55.4445 53.4435 60.6028 60.3513 60.0581ZM59.8717 53.975C63.4199 53.6952 66.0695 50.592 65.7897 47.0437C65.5099 43.4955 62.4067 40.8459 58.8585 41.1257C55.3102 41.4055 52.6607 44.5087 52.9404 48.0569C53.2202 51.6052 56.3234 54.2548 59.8717 53.975Z" fill="black"/>
<path d="M54.1255 56.5059L30.0292 84.7277" stroke="black" stroke-width="9.38433" stroke-linecap="round"/>
<rect x="37.9241" y="75.8613" width="6.03448" height="8.7801" rx="1.87687" transform="rotate(-48.9657 37.9241 75.8613)" fill="black"/>
<rect x="32.2864" y="82.5923" width="6.03448" height="8.7801" rx="1.87687" transform="rotate(-48.9657 32.2864 82.5923)" fill="black"/>
</svg>
