<svg width="80" height="74" viewBox="0 0 80 74" fill="none" xmlns="http://www.w3.org/2000/svg">
<path d="M18.3626 46.6511L0.447718 35.7251C0.309594 35.643 0.197019 35.5243 0.122529 35.3822C0.0480397 35.24 0.0145577 35.0801 0.0258128 34.9201C0.0370679 34.7601 0.0926178 34.6063 0.186277 34.476C0.279936 34.3456 0.408027 34.2437 0.556291 34.1817L78.6353 0.726733C78.7859 0.661879 78.9519 0.640881 79.1139 0.666181C79.276 0.691481 79.4275 0.762042 79.551 0.869692C79.6746 0.977342 79.765 1.11769 79.8119 1.27448C79.8588 1.43128 79.8603 1.59811 79.8161 1.75569L60.4219 70.2767C60.3856 70.4025 60.3212 70.5184 60.2335 70.6158C60.1458 70.7132 60.0372 70.7895 59.9157 70.839C59.7943 70.8885 59.6631 70.91 59.5322 70.9017C59.4013 70.8934 59.2739 70.8556 59.1597 70.7912L38.9376 59.6892C38.7575 59.5927 38.5495 59.5615 38.349 59.601C38.1485 59.6405 37.968 59.7483 37.8383 59.9058L27.3472 72.7408C27.2467 72.863 27.1145 72.9554 26.9651 73.0081C26.8157 73.0607 26.6547 73.0716 26.4996 73.0395C26.3444 73.0075 26.201 72.9337 26.0849 72.8261C25.9687 72.7186 25.8843 72.5814 25.8407 72.4294L18.7426 47.1521C18.7172 47.047 18.6704 46.9482 18.605 46.862C18.5396 46.7758 18.4571 46.704 18.3626 46.6511Z" fill="#3361BB"/>
<path d="M38.0014 59.1344L30.5911 53.9219C30.5445 53.8891 30.4904 53.8686 30.4337 53.8622C30.377 53.8559 30.3197 53.8638 30.2669 53.8854C30.2142 53.907 30.1677 53.9415 30.1319 53.9858C30.096 54.03 30.0719 54.0825 30.0618 54.1385L25.9088 72.5787C25.9088 72.9171 26.9131 73.2285 27.1303 72.9578L38.0692 59.5677C38.1113 59.4992 38.1276 59.418 38.1151 59.3386C38.1027 59.2592 38.0624 59.1869 38.0014 59.1344Z" fill="black"/>
<path d="M18.7158 47.0439L25.9089 72.6733C25.9295 72.7436 25.9723 72.8054 26.0311 72.8493C26.0898 72.8932 26.1612 72.917 26.2346 72.917C26.3081 72.917 26.3795 72.8932 26.4382 72.8493C26.497 72.8054 26.5398 72.7436 26.5604 72.6733L30.1433 53.7999C30.1537 53.7389 30.1821 53.6823 30.2248 53.6374L77.6449 2.87959C77.7097 2.82214 77.749 2.74136 77.7541 2.65503C77.7592 2.5687 77.7297 2.4839 77.6721 2.41927C77.6145 2.35464 77.5335 2.31546 77.447 2.31038C77.3604 2.3053 77.2754 2.33473 77.2106 2.39219L18.8515 46.719C18.8 46.7544 18.7598 46.8039 18.7358 46.8615C18.7117 46.9191 18.7048 46.9825 18.7158 47.0439Z" fill="#C0C0C0"/>
</svg>
