<svg width="90" height="86" viewBox="0 0 90 86" fill="none" xmlns="http://www.w3.org/2000/svg">
<g clip-path="url(#clip0_7_163)">
<path d="M17.4688 67.551C10.7247 60.9067 6.55316 51.7284 6.55316 41.5924C6.55316 21.3149 23.2382 4.87463 43.8206 4.87463C48.0488 4.87463 59.2761 5.54779 67.3189 12.489" stroke="#3361BB" stroke-width="8.27284" stroke-miterlimit="10"/>
<path d="M73.1563 20.2246C79.124 26.9673 82.3814 35.6822 82.2995 44.6862C82.1329 64.9931 65.3413 82.1168 44.8428 81.1501C39.4258 80.8951 31.9677 79.2032 23.7062 73.742" stroke="black" stroke-width="8.27284" stroke-miterlimit="10"/>
<path d="M68.3943 34.8925L72.8344 19.0789L79.0198 19.8109L89.0356 21.2502" stroke="black" stroke-width="5.77966" stroke-miterlimit="10"/>
<path d="M22.6308 52.9103L17.4846 68.5085L11.3378 67.4988L1.18488 65.6108" stroke="#3361BB" stroke-width="5.77966" stroke-miterlimit="10"/>
</g>
<defs>
<clipPath id="clip0_7_163">
<rect width="88.7902" height="84.5881" fill="white" transform="translate(0.656738 0.738281)"/>
</clipPath>
</defs>
</svg>
